<svg width="1440" height="211" viewBox="0 0 1440 211" fill="none" xmlns="http://www.w3.org/2000/svg">
<rect x="-34" y="105.2" width="1504" height="106" transform="rotate(-4 -34 105.2)" fill="url(#paint0_linear_2726_737)"/>
<path d="M196.691 151.466C190.706 151.884 187.469 149.464 187.174 145.244L187.162 145.065L190.394 144.839L190.427 145.318C190.595 147.712 192.085 148.811 196.484 148.503C200.315 148.235 201.603 147.303 201.471 145.418C201.35 143.682 200.286 143.095 197.709 142.794L192.744 142.329C189.321 141.967 186.818 140.578 186.588 137.286C186.385 134.383 188.574 131.283 194.798 130.848C200.664 130.437 203.533 133.184 203.807 137.104L203.819 137.284L200.617 137.508L200.59 137.119C200.418 134.665 198.866 133.54 194.706 133.831C191.055 134.087 189.682 135.085 189.807 136.88C189.928 138.616 190.986 139.114 193.386 139.457L198.322 139.954C202.383 140.392 204.486 142.079 204.691 145.012C204.904 148.065 202.617 151.051 196.691 151.466ZM210.663 155.3L207.431 155.526L206.035 135.565L208.998 135.358L209.287 139.488L209.556 139.469C209.962 136.674 211.94 134.852 215.441 134.607C220.05 134.284 222.873 137.245 223.196 141.854C223.518 146.462 221.192 149.753 216.553 150.077C213.201 150.311 210.923 148.696 210.134 146.015L210.014 146.023L210.663 155.3ZM209.805 143.03C210.018 146.083 212.068 147.443 215.241 147.221C218.443 146.998 220.212 145.641 219.963 142.08C219.712 138.488 217.743 137.423 214.631 137.641C211.309 137.873 209.562 139.559 209.786 142.761L209.805 143.03ZM230.046 149.133C226.963 149.349 224.918 148.048 224.746 145.594C224.585 143.29 226.357 141.963 229.266 141.429L235.98 140.238L235.919 139.37C235.747 136.916 234.609 136.123 231.766 136.322C229.013 136.515 227.729 137.507 227.882 139.691L227.89 139.811L224.688 140.035L224.68 139.915C224.443 136.534 227.078 133.793 231.807 133.462C236.535 133.132 238.84 135.557 239.089 139.118L239.721 148.156L236.758 148.363L236.499 144.652L236.289 144.667C235.687 147.235 233.428 148.897 230.046 149.133ZM227.963 145.159C228.047 146.356 228.895 146.868 230.75 146.738C234.132 146.502 236.319 145.086 236.114 142.153L230.324 143.22C228.663 143.546 227.882 143.992 227.963 145.159ZM254.595 147.417C249.268 147.789 245.962 146.096 245.692 142.235C245.491 139.362 247.137 137.533 249.979 136.883L249.962 136.644C247.331 136.437 245.891 134.763 245.738 132.578C245.496 129.107 248.1 127.211 252.708 126.888L256.868 126.597L257.073 129.53L252.495 129.85C249.861 130.035 248.838 130.888 248.98 132.923C249.123 134.958 250.552 135.61 252.976 135.441L259.5 134.984L259.28 131.842L262.452 131.62L262.672 134.762L265.934 134.534L266.122 137.228L262.86 137.456L263.005 139.521C263.321 144.04 260.82 146.981 254.595 147.417ZM254.51 144.476C258.759 144.178 260.061 143.005 259.843 139.892L259.688 137.678L252.565 138.176C250.141 138.345 248.768 139.344 248.929 141.648C249.086 143.892 250.499 144.756 254.51 144.476ZM275.971 145.621L272.739 145.847L271.337 125.796L275.736 125.489L282.324 136.696L284.44 140.729L284.68 140.712L286.155 136.428L291.059 124.417L295.458 124.11L296.86 144.161L293.628 144.387L292.768 132.087L292.685 129.175L292.445 129.192L291.421 132.181L286.661 143.671L282.771 143.943L276.458 133.227L275.028 130.41L274.788 130.427L275.111 133.321L275.971 145.621ZM303.951 143.965C300.869 144.181 298.823 142.88 298.651 140.426C298.49 138.122 300.262 136.795 303.172 136.261L309.885 135.07L309.825 134.202C309.653 131.748 308.515 130.955 305.672 131.154C302.919 131.347 301.635 132.339 301.787 134.523L301.796 134.643L298.594 134.867L298.585 134.747C298.349 131.366 300.984 128.625 305.712 128.294C310.441 127.964 312.746 130.389 312.995 133.95L313.627 142.988L310.664 143.195L310.404 139.484L310.195 139.499C309.593 142.067 307.333 143.729 303.951 143.965ZM301.869 139.991C301.953 141.188 302.8 141.7 304.656 141.57C308.038 141.334 310.224 139.918 310.019 136.985L304.229 138.052C302.568 138.378 301.787 138.824 301.869 139.991ZM323.266 142.615C318.478 142.95 315.623 141.255 315.382 137.813L315.376 137.723L318.608 137.497L318.625 137.737C318.761 139.682 319.972 140.229 323.084 140.011C325.987 139.808 326.813 139.149 326.721 137.832C326.635 136.605 325.89 136.266 323.744 136.116L319.636 135.862C316.798 135.699 315.009 134.621 314.835 132.137C314.653 129.534 316.887 127.513 321.466 127.193C326.015 126.875 328.896 128.508 329.143 132.039L329.149 132.129L325.947 132.353L325.934 132.173C325.811 130.408 324.848 129.543 321.556 129.773C318.833 129.963 317.917 130.629 318.016 132.035C318.097 133.202 318.725 133.58 320.99 133.722L324.465 133.96C328.028 134.162 329.728 135.246 329.9 137.7C330.094 140.483 327.456 142.322 323.266 142.615ZM339.275 141.495C334.487 141.83 331.631 140.135 331.391 136.694L331.384 136.604L334.617 136.378L334.633 136.617C334.769 138.562 335.98 139.109 339.093 138.892C341.996 138.689 342.822 138.029 342.73 136.713C342.644 135.486 341.898 135.147 339.753 134.996L335.645 134.742C332.807 134.58 331.017 133.502 330.843 131.018C330.661 128.414 332.896 126.394 337.475 126.073C342.024 125.755 344.905 127.388 345.151 130.92L345.158 131.009L341.956 131.233L341.943 131.054C341.82 129.288 340.857 128.423 337.565 128.653C334.842 128.844 333.926 129.509 334.024 130.916C334.106 132.083 334.734 132.46 336.999 132.602L340.474 132.841C344.037 133.043 345.737 134.127 345.908 136.581C346.103 139.364 343.465 141.202 339.275 141.495ZM352.62 140.562C349.537 140.778 347.492 139.477 347.32 137.023C347.159 134.719 348.931 133.392 351.841 132.858L358.554 131.667L358.493 130.799C358.322 128.345 357.184 127.552 354.34 127.751C351.587 127.943 350.303 128.935 350.456 131.12L350.464 131.24L347.262 131.464L347.254 131.344C347.017 127.962 349.653 125.222 354.381 124.891C359.11 124.56 361.414 126.986 361.663 130.547L362.295 139.585L359.333 139.792L359.073 136.081L358.864 136.096C358.261 138.664 356.002 140.326 352.62 140.562ZM350.538 136.588C350.621 137.785 351.469 138.297 353.325 138.167C356.706 137.931 358.893 136.515 358.688 133.582L352.898 134.648C351.237 134.975 350.456 135.421 350.538 136.588ZM371.251 137.605C366.822 137.915 363.994 135.316 363.705 131.186C363.416 127.056 365.975 124.08 370.494 123.764C373.606 123.547 376.039 124.79 376.76 127.356L376.939 127.344L376.68 123.633L379.643 123.425L380.561 136.563C380.911 141.561 377.947 143.904 373.069 144.245C368.67 144.552 365.473 142.701 365.221 139.11L368.424 138.886C368.574 141.04 369.888 141.761 373.06 141.539C376.442 141.302 377.604 140.289 377.372 136.967L377.116 133.316L376.907 133.33C376.525 135.613 374.633 137.369 371.251 137.605ZM366.967 130.958C367.181 134.011 369.052 134.962 372.104 134.749C375.396 134.519 377.095 133.016 376.911 130.383L376.882 129.964C376.706 127.45 374.761 126.293 371.618 126.513C368.506 126.73 366.754 127.905 366.967 130.958ZM390.877 137.887C385.998 138.228 382.604 135.699 382.256 130.731C381.932 126.092 384.887 122.758 389.735 122.419C394.344 122.097 397.664 124.421 397.98 128.94C398.017 129.478 398.017 129.899 397.958 130.355L385.329 131.238C385.65 134.102 387.163 135.53 390.605 135.29C393.717 135.072 394.933 133.964 394.809 132.199L394.793 131.959L398.025 131.733L398.044 132.003C398.265 135.175 395.306 137.577 390.877 137.887ZM389.853 124.967C386.561 125.197 385.227 126.764 385.234 129.44L394.9 128.764L394.896 128.704C394.703 125.951 393.025 124.745 389.853 124.967Z" fill="white"/>
<path d="M808.019 111.461C802.034 111.879 798.797 109.459 798.502 105.24L798.49 105.06L801.722 104.834L801.755 105.313C801.923 107.707 803.413 108.806 807.812 108.498C811.643 108.23 812.931 107.298 812.799 105.413C812.678 103.677 811.614 103.09 809.037 102.789L804.072 102.324C800.649 101.962 798.146 100.573 797.916 97.2811C797.713 94.3782 799.902 91.278 806.127 90.8427C811.992 90.4325 814.861 93.1791 815.135 97.0995L815.148 97.2791L811.945 97.503L811.918 97.114C811.747 94.66 810.194 93.5355 806.034 93.8264C802.383 94.0817 801.01 95.0799 801.135 96.8756C801.257 98.6113 802.314 99.1088 804.714 99.4522L809.65 99.9491C813.711 100.387 815.814 102.074 816.019 105.007C816.232 108.06 813.945 111.047 808.019 111.461ZM821.991 115.296L818.759 115.522L817.363 95.5604L820.326 95.3532L820.615 99.4831L820.884 99.4643C821.29 96.6691 823.268 94.8467 826.769 94.6019C831.378 94.2796 834.201 97.2399 834.524 101.849C834.846 106.457 832.52 109.748 827.881 110.072C824.529 110.306 822.251 108.691 821.462 106.01L821.342 106.018L821.991 115.296ZM821.133 103.026C821.347 106.078 823.396 107.438 826.569 107.217C829.771 106.993 831.541 105.636 831.292 102.075C831.04 98.4834 829.071 97.4182 825.959 97.6358C822.637 97.8681 820.89 99.554 821.114 102.756L821.133 103.026ZM841.374 109.129C838.291 109.344 836.246 108.044 836.074 105.59C835.913 103.285 837.685 101.958 840.595 101.424L847.308 100.233L847.247 99.365C847.076 96.911 845.938 96.1185 843.094 96.3173C840.341 96.5098 839.057 97.5018 839.21 99.6865L839.218 99.8062L836.016 100.03L836.008 99.9104C835.771 96.5286 838.407 93.7881 843.135 93.4575C847.864 93.1268 850.168 95.552 850.417 99.1133L851.049 108.151L848.087 108.358L847.827 104.647L847.618 104.662C847.015 107.23 844.756 108.892 841.374 109.129ZM839.292 105.154C839.375 106.351 840.223 106.863 842.079 106.734C845.46 106.497 847.647 105.081 847.442 102.148L841.652 103.215C839.991 103.541 839.21 103.987 839.292 105.154ZM865.923 107.412C860.596 107.784 857.29 106.091 857.02 102.23C856.819 99.3573 858.465 97.528 861.307 96.8782L861.29 96.6388C858.659 96.4318 857.219 94.7582 857.066 92.5735C856.824 89.102 859.428 87.2057 864.037 86.8835L868.196 86.5926L868.401 89.5254L863.823 89.8456C861.189 90.0297 860.166 90.8832 860.308 92.9182C860.451 94.9532 861.88 95.6052 864.304 95.4356L870.828 94.9794L870.608 91.8371L873.78 91.6153L874 94.7576L877.262 94.5295L877.45 97.2229L874.188 97.451L874.333 99.516C874.649 104.035 872.148 106.977 865.923 107.412ZM865.838 104.471C870.087 104.173 871.389 103 871.171 99.8875L871.016 97.6729L863.894 98.1709C861.469 98.3404 860.096 99.3387 860.257 101.643C860.414 103.888 861.828 104.751 865.838 104.471ZM887.299 105.616L884.067 105.842L882.665 85.7913L887.064 85.4837L893.652 96.6915L895.769 100.724L896.008 100.707L897.483 96.4236L902.387 84.4122L906.786 84.1046L908.188 104.156L904.956 104.382L904.096 92.0817L904.013 89.1704L903.773 89.1872L902.749 92.1759L897.989 103.666L894.099 103.938L887.786 93.2222L886.356 90.4051L886.116 90.4219L886.439 93.3164L887.299 105.616ZM915.279 103.961C912.197 104.176 910.151 102.876 909.98 100.422C909.818 98.1172 911.59 96.7904 914.5 96.2561L921.213 95.0649L921.153 94.197C920.981 91.743 919.843 90.9505 917 91.1493C914.247 91.3418 912.963 92.3338 913.115 94.5185L913.124 94.6382L909.922 94.8621L909.913 94.7424C909.677 91.3607 912.312 88.6202 917.041 88.2895C921.769 87.9589 924.074 90.384 924.323 93.9453L924.955 102.983L921.992 103.19L921.733 99.4795L921.523 99.4941C920.921 102.062 918.661 103.724 915.279 103.961ZM913.197 99.9861C913.281 101.183 914.129 101.695 915.984 101.566C919.366 101.329 921.552 99.9131 921.347 96.9803L915.558 98.0467C913.896 98.3734 913.115 98.819 913.197 99.9861ZM934.594 102.61C929.806 102.945 926.951 101.25 926.71 97.8082L926.704 97.7184L929.936 97.4924L929.953 97.7318C930.089 99.677 931.3 100.224 934.412 100.006C937.315 99.8033 938.141 99.144 938.049 97.8272C937.963 96.6002 937.218 96.2614 935.072 96.1107L930.964 95.8567C928.126 95.6942 926.337 94.6164 926.163 92.1325C925.981 89.5289 928.215 87.5081 932.794 87.1879C937.343 86.8698 940.224 88.5028 940.471 92.0342L940.477 92.124L937.275 92.3479L937.263 92.1683C937.139 90.4026 936.176 89.5377 932.884 89.7679C930.161 89.9583 929.245 90.6238 929.344 92.0304C929.425 93.1975 930.053 93.5747 932.319 93.717L935.794 93.9552C939.356 94.1571 941.056 95.2412 941.228 97.6952C941.422 100.478 938.784 102.317 934.594 102.61ZM950.603 101.49C945.815 101.825 942.959 100.13 942.719 96.6887L942.713 96.599L945.945 96.3729L945.961 96.6124C946.097 98.5576 947.309 99.1045 950.421 98.8868C953.324 98.6838 954.15 98.0246 954.058 96.7078C953.972 95.4808 953.227 95.142 951.081 94.9913L946.973 94.7372C944.135 94.5748 942.345 93.497 942.172 91.0131C941.99 88.4094 944.224 86.3887 948.803 86.0685C953.352 85.7504 956.233 87.3834 956.48 90.9148L956.486 91.0046L953.284 91.2285L953.271 91.0489C953.148 89.2832 952.185 88.4183 948.893 88.6485C946.17 88.8389 945.254 89.5044 945.352 90.911C945.434 92.0781 946.062 92.4552 948.327 92.5976L951.802 92.8357C955.365 93.0377 957.065 94.1218 957.236 96.5758C957.431 99.359 954.793 101.197 950.603 101.49ZM963.948 100.557C960.866 100.773 958.82 99.4724 958.648 97.0184C958.487 94.714 960.259 93.3872 963.169 92.8529L969.882 91.6617L969.821 90.7938C969.65 88.3398 968.512 87.5473 965.669 87.7461C962.915 87.9386 961.631 88.9306 961.784 91.1152L961.793 91.2349L958.59 91.4589L958.582 91.3392C958.345 87.9574 960.981 85.2169 965.709 84.8863C970.438 84.5556 972.742 86.9807 972.991 90.5421L973.623 99.58L970.661 99.7872L970.401 96.0762L970.192 96.0909C969.589 98.6591 967.33 100.321 963.948 100.557ZM961.866 96.5829C961.949 97.7799 962.797 98.292 964.653 98.1623C968.034 97.9258 970.221 96.5098 970.016 93.577L964.226 94.6435C962.565 94.9702 961.784 95.4157 961.866 96.5829ZM982.579 97.6004C978.15 97.9101 975.322 95.3111 975.033 91.1812C974.744 87.0513 977.303 84.0755 981.822 83.7595C984.934 83.5419 987.367 84.7852 988.088 87.3512L988.267 87.3387L988.008 83.6277L990.971 83.4205L991.889 96.5585C992.239 101.556 989.275 103.899 984.397 104.24C979.998 104.547 976.801 102.696 976.55 99.1047L979.752 98.8808C979.902 101.036 981.216 101.756 984.388 101.534C987.77 101.297 988.932 100.284 988.7 96.9619L988.444 93.3109L988.235 93.3255C987.853 95.6077 985.961 97.364 982.579 97.6004ZM978.295 90.9531C978.509 94.0056 980.38 94.9574 983.432 94.744C986.724 94.5138 988.423 93.0116 988.239 90.378L988.21 89.959C988.034 87.4452 986.089 86.2881 982.946 86.5078C979.834 86.7254 978.082 87.9005 978.295 90.9531ZM1002.2 97.8821C997.327 98.2232 993.932 95.6939 993.585 90.726C993.26 86.0873 996.215 82.7531 1001.06 82.4141C1005.67 82.0918 1008.99 84.4159 1009.31 88.9348C1009.35 89.4735 1009.34 89.8946 1009.29 90.3498L996.657 91.2329C996.978 94.0975 998.491 95.5254 1001.93 95.2848C1005.05 95.0671 1006.26 93.9596 1006.14 92.1939L1006.12 91.9545L1009.35 91.7285L1009.37 91.9978C1009.59 95.1701 1006.63 97.5724 1002.2 97.8821ZM1001.18 84.9621C997.889 85.1923 996.555 86.7591 996.562 89.4352L1006.23 88.7592L1006.22 88.6994C1006.03 85.9461 1004.35 84.7402 1001.18 84.9621Z" fill="white"/>
<path d="M495.821 133.524L492.589 133.75L491.187 113.699L501.003 113.012C505.462 112.7 508.693 115.031 509.004 119.49C509.314 123.919 506.441 126.706 501.982 127.018L495.398 127.478L495.821 133.524ZM500.907 115.936L494.622 116.376L495.195 124.575L501.48 124.136C504.503 123.925 505.979 122.679 505.772 119.716C505.565 116.753 503.929 115.725 500.907 115.936ZM518.603 132.231C513.815 132.566 510.96 130.871 510.719 127.43L510.713 127.34L513.945 127.114L513.962 127.353C514.098 129.298 515.309 129.845 518.421 129.628C521.324 129.425 522.15 128.765 522.058 127.449C521.972 126.222 521.227 125.883 519.081 125.732L514.973 125.478C512.135 125.316 510.345 124.238 510.172 121.754C509.99 119.15 512.224 117.129 516.803 116.809C521.352 116.491 524.233 118.124 524.48 121.656L524.486 121.745L521.284 121.969L521.271 121.79C521.148 120.024 520.185 119.159 516.893 119.389C514.17 119.58 513.254 120.245 513.352 121.652C513.434 122.819 514.062 123.196 516.327 123.338L519.802 123.577C523.365 123.779 525.065 124.863 525.236 127.317C525.431 130.1 522.793 131.938 518.603 132.231ZM530.308 136.225L528.183 136.373L527.978 133.44L530.881 133.237C532.198 133.145 532.711 132.748 533.089 131.7L533.394 130.896L525.022 116.535L528.643 116.282L532.996 123.917L534.711 127.376L534.951 127.359L536.106 123.669L539.057 115.554L542.619 115.305L536.021 132.337C534.98 135.086 533.36 136.011 530.308 136.225ZM552.473 129.863C547.565 130.206 544.143 127.288 543.823 122.709C543.498 118.07 546.483 114.734 551.391 114.391C555.85 114.079 559.288 116.365 559.547 120.076L559.568 120.375L556.366 120.599L556.353 120.419C556.192 118.115 554.437 117.095 551.534 117.298C548.182 117.532 546.797 119.223 547.025 122.485C547.249 125.687 548.858 127.199 552.21 126.964C555.113 126.761 556.709 125.507 556.548 123.202L556.533 122.993L559.736 122.769L559.759 123.098C560.018 126.809 556.932 129.551 552.473 129.863ZM565.496 128.652L562.264 128.878L560.862 108.826L564.094 108.6L564.774 118.327L564.954 118.314C565.286 115.765 566.949 113.303 570.75 113.037C574.85 112.75 577.043 115.304 577.296 118.925L577.916 127.783L574.713 128.007L574.148 119.927C573.939 116.934 572.509 115.831 569.426 116.047C565.895 116.294 564.772 118.297 564.992 121.439L565.496 128.652ZM588.145 127.368C583.207 127.714 579.666 124.804 579.345 120.225C579.021 115.586 582.125 112.242 587.063 111.896C592.031 111.549 595.571 114.429 595.895 119.068C596.215 123.646 593.113 127.021 588.145 127.368ZM587.944 124.495C591.565 124.242 592.942 122.432 592.723 119.289C592.501 116.117 590.883 114.486 587.262 114.739C583.671 114.99 582.296 116.831 582.518 120.003C582.737 123.145 584.353 124.747 587.944 124.495ZM608.216 125.664L604.805 125.903C601.603 126.127 599.529 124.858 599.276 121.237L598.776 114.085L596.262 114.26L596.073 111.567L598.587 111.391L598.359 108.129L601.561 107.905L601.789 111.167L607.176 110.791L607.365 113.484L601.978 113.861L602.465 120.834C602.593 122.659 603.464 123.079 605.32 122.95L608.013 122.761L608.216 125.664ZM613.171 125.318L609.939 125.544L608.537 105.493L611.769 105.267L612.449 114.993L612.629 114.98C612.961 112.431 614.624 109.969 618.425 109.703C622.524 109.417 624.718 111.97 624.971 115.591L625.591 124.449L622.388 124.673L621.823 116.593C621.614 113.6 620.184 112.497 617.101 112.713C613.57 112.96 612.447 114.963 612.667 118.105L613.171 125.318ZM635.7 124.043C630.822 124.384 627.428 121.855 627.08 116.887C626.756 112.248 629.71 108.914 634.559 108.575C639.167 108.253 642.488 110.577 642.804 115.096C642.841 115.634 642.841 116.056 642.782 116.511L630.153 117.394C630.474 120.258 631.987 121.686 635.429 121.446C638.541 121.228 639.757 120.121 639.633 118.355L639.616 118.115L642.849 117.889L642.867 118.159C643.089 121.331 640.13 123.733 635.7 124.043ZM634.677 111.123C631.385 111.353 630.051 112.92 630.057 115.596L639.724 114.92L639.72 114.86C639.527 112.107 637.849 110.901 634.677 111.123ZM648.724 122.832L645.492 123.058L644.452 108.184L647.415 107.977L647.695 111.987L647.905 111.972C648.186 109.547 649.668 107.518 652.721 107.305C656.103 107.069 657.739 109.39 657.935 112.203L658.071 114.148L654.869 114.372L654.777 113.056C654.629 110.931 653.662 110.006 651.447 110.161C648.903 110.339 647.954 111.819 648.14 114.482L648.724 122.832ZM664.751 122.012C661.669 122.227 659.623 120.927 659.451 118.473C659.29 116.168 661.062 114.842 663.972 114.307L670.685 113.116L670.625 112.248C670.453 109.794 669.315 109.002 666.472 109.2C663.719 109.393 662.435 110.385 662.587 112.57L662.596 112.689L659.394 112.913L659.385 112.793C659.149 109.412 661.784 106.671 666.512 106.341C671.241 106.01 673.546 108.435 673.795 111.996L674.427 121.034L671.464 121.242L671.204 117.531L670.995 117.545C670.393 120.113 668.133 121.775 664.751 122.012ZM662.669 118.037C662.753 119.234 663.6 119.746 665.456 119.617C668.838 119.38 671.024 117.964 670.819 115.031L665.029 116.098C663.368 116.425 662.587 116.87 662.669 118.037ZM680.6 125.715L677.368 125.941L675.972 105.98L678.935 105.773L679.224 109.903L679.493 109.884C679.899 107.089 681.877 105.266 685.379 105.021C689.987 104.699 692.811 107.659 693.133 112.268C693.455 116.877 691.129 120.167 686.49 120.491C683.139 120.726 680.86 119.111 680.071 116.429L679.952 116.438L680.6 125.715ZM679.742 113.445C679.956 116.498 682.006 117.858 685.178 117.636C688.38 117.412 690.15 116.055 689.901 112.494C689.65 108.903 687.681 107.838 684.568 108.055C681.246 108.288 679.5 109.974 679.724 113.176L679.742 113.445ZM698.343 124.474L696.218 124.623L696.013 121.69L698.916 121.487C700.233 121.395 700.746 120.998 701.124 119.949L701.429 119.146L693.057 104.785L696.678 104.532L701.031 112.167L702.746 115.626L702.986 115.609L704.141 111.919L707.092 103.804L710.654 103.555L704.056 120.586C703.015 123.336 701.395 124.261 698.343 124.474Z" fill="white"/>
<path d="M1091.82 90.0822L1088.59 90.3082L1087.19 70.2572L1097 69.5708C1101.46 69.259 1104.69 71.5893 1105 76.0484C1105.31 80.4776 1102.44 83.2648 1097.98 83.5766L1091.4 84.037L1091.82 90.0822ZM1096.91 72.4946L1090.62 72.9341L1091.2 81.1341L1097.48 80.6946C1100.5 80.4833 1101.98 79.2372 1101.77 76.2745C1101.57 73.3117 1099.93 72.2833 1096.91 72.4946ZM1114.6 88.7899C1109.81 89.1247 1106.96 87.4298 1106.72 83.9882L1106.71 83.8984L1109.94 83.6724L1109.96 83.9118C1110.1 85.857 1111.31 86.4039 1114.42 86.1863C1117.32 85.9833 1118.15 85.324 1118.06 84.0073C1117.97 82.7803 1117.23 82.4414 1115.08 82.2907L1110.97 82.0367C1108.13 81.8742 1106.35 80.7965 1106.17 78.3125C1105.99 75.7089 1108.22 73.6881 1112.8 73.3679C1117.35 73.0498 1120.23 74.6828 1120.48 78.2142L1120.49 78.304L1117.28 78.5279L1117.27 78.3483C1117.15 76.5827 1116.19 75.7177 1112.89 75.9479C1110.17 76.1383 1109.25 76.8038 1109.35 78.2104C1109.43 79.3776 1110.06 79.7547 1112.33 79.897L1115.8 80.1352C1119.37 80.3371 1121.06 81.4212 1121.24 83.8752C1121.43 86.6584 1118.79 88.4969 1114.6 88.7899ZM1126.31 92.7831L1124.18 92.9317L1123.98 89.9989L1126.88 89.7959C1128.2 89.7038 1128.71 89.307 1129.09 88.2581L1129.39 87.4549L1121.02 73.0939L1124.64 72.8407L1129 80.4757L1130.71 83.9344L1130.95 83.9177L1132.11 80.2281L1135.06 72.1125L1138.62 71.8634L1132.02 88.8952C1130.98 91.6445 1129.36 92.5697 1126.31 92.7831ZM1148.47 86.4215C1143.56 86.7647 1140.14 83.8463 1139.82 79.2675C1139.5 74.6288 1142.48 71.2925 1147.39 70.9493C1151.85 70.6375 1155.29 72.9232 1155.55 76.6342L1155.57 76.9334L1152.37 77.1574L1152.35 76.9778C1152.19 74.6734 1150.44 73.6534 1147.53 73.8564C1144.18 74.0908 1142.8 75.7815 1143.02 79.0436C1143.25 82.2457 1144.86 83.7572 1148.21 83.5228C1151.11 83.3198 1152.71 82.0654 1152.55 79.761L1152.53 79.5515L1155.74 79.3276L1155.76 79.6568C1156.02 83.3677 1152.93 86.1097 1148.47 86.4215ZM1161.5 85.2101L1158.26 85.4361L1156.86 65.3851L1160.09 65.1591L1160.77 74.8853L1160.95 74.8728C1161.29 72.3233 1162.95 69.8614 1166.75 69.5956C1170.85 69.3089 1173.04 71.8621 1173.3 75.4833L1173.92 84.3416L1170.71 84.5656L1170.15 76.4853C1169.94 73.4926 1168.51 72.3897 1165.43 72.6052C1161.89 72.8522 1160.77 74.8554 1160.99 77.9977L1161.5 85.2101ZM1184.15 83.927C1179.21 84.2723 1175.67 81.3623 1175.35 76.7835C1175.02 72.1448 1178.13 68.8001 1183.06 68.4548C1188.03 68.1074 1191.57 70.9876 1191.89 75.6262C1192.22 80.205 1189.11 83.5797 1184.15 83.927ZM1183.94 81.0541C1187.57 80.8008 1188.94 78.9904 1188.72 75.8481C1188.5 72.6758 1186.88 71.0447 1183.26 71.2979C1179.67 71.549 1178.3 73.3894 1178.52 76.5617C1178.74 79.704 1180.35 81.3052 1183.94 81.0541ZM1204.22 82.2228L1200.8 82.4614C1197.6 82.6853 1195.53 81.4168 1195.28 77.7957L1194.78 70.6431L1192.26 70.8189L1192.07 68.1255L1194.59 67.9497L1194.36 64.6877L1197.56 64.4638L1197.79 67.7258L1203.18 67.3491L1203.36 70.0425L1197.98 70.4192L1198.47 77.3922C1198.59 79.2177 1199.46 79.638 1201.32 79.5082L1204.01 79.3199L1204.22 82.2228ZM1209.17 81.8763L1205.94 82.1024L1204.54 62.0513L1207.77 61.8253L1208.45 71.5516L1208.63 71.539C1208.96 68.9896 1210.62 66.5276 1214.42 66.2618C1218.52 65.9751 1220.72 68.5283 1220.97 72.1495L1221.59 81.0079L1218.39 81.2318L1217.82 73.1515C1217.61 70.1588 1216.18 69.0559 1213.1 69.2715C1209.57 69.5184 1208.45 71.5216 1208.67 74.664L1209.17 81.8763ZM1231.7 80.6017C1226.82 80.9428 1223.43 78.4134 1223.08 73.4455C1222.76 68.8069 1225.71 65.4726 1230.56 65.1336C1235.17 64.8114 1238.49 67.1354 1238.8 71.6544C1238.84 72.1931 1238.84 72.6141 1238.78 73.0693L1226.15 73.9524C1226.47 76.817 1227.99 78.245 1231.43 78.0043C1234.54 77.7867 1235.76 76.6792 1235.63 74.9135L1235.62 74.6741L1238.85 74.448L1238.87 74.7174C1239.09 77.8896 1236.13 80.2919 1231.7 80.6017ZM1230.68 67.6816C1227.38 67.9118 1226.05 69.4787 1226.06 72.1547L1235.72 71.4788L1235.72 71.4189C1235.53 68.6656 1233.85 67.4598 1230.68 67.6816ZM1244.72 79.3902L1241.49 79.6162L1240.45 64.7425L1243.41 64.5354L1243.7 68.5456L1243.9 68.5309C1244.19 66.1054 1245.67 64.077 1248.72 63.8636C1252.1 63.6271 1253.74 65.9487 1253.94 68.7618L1254.07 70.707L1250.87 70.931L1250.78 69.6142C1250.63 67.4894 1249.66 66.5645 1247.45 66.7194C1244.9 66.8973 1243.95 68.3771 1244.14 71.0406L1244.72 79.3902ZM1260.75 78.5702C1257.67 78.7858 1255.62 77.4853 1255.45 75.0313C1255.29 72.7269 1257.06 71.4001 1259.97 70.8658L1266.69 69.6746L1266.62 68.8067C1266.45 66.3527 1265.31 65.5602 1262.47 65.759C1259.72 65.9515 1258.43 66.9435 1258.59 69.1282L1258.6 69.2479L1255.39 69.4718L1255.39 69.3521C1255.15 65.9703 1257.78 63.2298 1262.51 62.8992C1267.24 62.5686 1269.55 64.9937 1269.79 68.555L1270.43 77.5929L1267.46 77.8001L1267.2 74.0892L1266.99 74.1038C1266.39 76.6721 1264.13 78.3338 1260.75 78.5702ZM1258.67 74.5958C1258.75 75.7929 1259.6 76.305 1261.46 76.1752C1264.84 75.9388 1267.02 74.5228 1266.82 71.5899L1261.03 72.6564C1259.37 72.9831 1258.59 73.4286 1258.67 74.5958ZM1276.6 82.2737L1273.37 82.4997L1271.97 62.5384L1274.94 62.3312L1275.22 66.4612L1275.49 66.4423C1275.9 63.6472 1277.88 61.8248 1281.38 61.58C1285.99 61.2577 1288.81 64.2179 1289.13 68.8267C1289.46 73.4354 1287.13 76.7257 1282.49 77.0501C1279.14 77.2845 1276.86 75.6694 1276.07 72.988L1275.95 72.9963L1276.6 82.2737ZM1275.74 70.0036C1275.96 73.0562 1278.01 74.4165 1281.18 74.1947C1284.38 73.9708 1286.15 72.614 1285.9 69.0527C1285.65 65.4615 1283.68 64.3962 1280.57 64.6139C1277.25 64.8462 1275.5 66.5321 1275.72 69.7343L1275.74 70.0036ZM1294.34 81.033L1292.22 81.1816L1292.01 78.2487L1294.92 78.0457C1296.23 77.9537 1296.75 77.5569 1297.12 76.508L1297.43 75.7048L1289.06 61.3438L1292.68 61.0906L1297.03 68.7255L1298.75 72.1843L1298.99 72.1675L1300.14 68.4779L1303.09 60.3623L1306.65 60.1133L1300.06 77.145C1299.01 79.8943 1297.4 80.8195 1294.34 81.033Z" fill="url(#paint1_linear_2726_737)"/>
<path d="M438.43 105.704C442.048 119.021 446.663 124.199 462.444 126.58C448.144 128.824 442.77 133.164 441.569 150.595C440.783 136.763 435.61 131.871 417.554 129.719C432.889 125.333 436.925 119.78 438.43 105.704Z" fill="#7A3213"/>
<path d="M137.445 126.569C141.064 139.885 145.678 145.063 161.46 147.444C147.159 149.688 141.786 154.028 140.584 171.459C139.799 157.628 134.626 152.735 116.57 150.583C131.905 146.197 135.94 140.644 137.445 126.569Z" fill="#7A3213"/>
<path d="M750.445 86.5688C754.064 99.8849 758.678 105.063 774.46 107.444C760.159 109.688 754.786 114.028 753.584 131.459C752.799 117.628 747.626 112.735 729.57 110.583C744.905 106.197 748.94 100.644 750.445 86.5688Z" fill="#7A3213"/>
<path d="M1047.45 65.5688C1051.06 78.8849 1055.68 84.0629 1071.46 86.4444C1057.16 88.6884 1051.79 93.0283 1050.58 110.459C1049.8 96.6276 1044.63 91.7354 1026.57 89.5835C1041.9 85.1973 1045.94 79.6442 1047.45 65.5688Z" fill="#7A3213"/>
<path d="M1351.45 43.5688C1355.06 56.8849 1359.68 62.0629 1375.46 64.4444C1361.16 66.6884 1355.79 71.0283 1354.58 88.4591C1353.8 74.6276 1348.63 69.7354 1330.57 67.5835C1345.9 63.1973 1349.94 57.6442 1351.45 43.5688Z" fill="#7A3213" fill-opacity="0.51"/>
<path d="M1405.02 66.4609C1399.03 66.8794 1395.8 64.4593 1395.5 60.2396L1395.49 60.06L1398.72 59.834L1398.76 60.3129C1398.92 62.707 1400.41 63.8057 1404.81 63.4981C1408.64 63.2302 1409.93 62.2981 1409.8 60.4127C1409.68 58.677 1408.61 58.0897 1406.04 57.7888L1401.07 57.3239C1397.65 56.9619 1395.15 55.5731 1394.92 52.2811C1394.71 49.3782 1396.9 46.278 1403.13 45.8427C1408.99 45.4325 1411.86 48.1791 1412.13 52.0995L1412.15 52.2791L1408.95 52.503L1408.92 52.114C1408.75 49.66 1407.19 48.5355 1403.03 48.8264C1399.38 49.0817 1398.01 50.0799 1398.14 51.8756C1398.26 53.6113 1399.31 54.1088 1401.71 54.4522L1406.65 54.9491C1410.71 55.3869 1412.81 57.0743 1413.02 60.0072C1413.23 63.0597 1410.94 66.0465 1405.02 66.4609ZM1418.99 70.2956L1415.76 70.5216L1414.36 50.5604L1417.33 50.3532L1417.61 54.4831L1417.88 54.4643C1418.29 51.6691 1420.27 49.8467 1423.77 49.6019C1428.38 49.2796 1431.2 52.2399 1431.52 56.8486C1431.85 61.4574 1429.52 64.7476 1424.88 65.072C1421.53 65.3064 1419.25 63.6914 1418.46 61.0099L1418.34 61.0183L1418.99 70.2956ZM1418.13 58.0256C1418.35 61.0781 1420.4 62.4384 1423.57 62.2166C1426.77 61.9927 1428.54 60.6359 1428.29 57.0746C1428.04 53.4834 1426.07 52.4182 1422.96 52.6358C1419.64 52.8681 1417.89 54.554 1418.11 57.7562L1418.13 58.0256ZM1438.37 64.1285C1435.29 64.3441 1433.25 63.0436 1433.07 60.5896C1432.91 58.2852 1434.68 56.9584 1437.59 56.4241L1444.31 55.2329L1444.25 54.365C1444.08 51.911 1442.94 51.1185 1440.09 51.3173C1437.34 51.5098 1436.06 52.5018 1436.21 54.6865L1436.22 54.8062L1433.02 55.0301L1433.01 54.9104C1432.77 51.5286 1435.41 48.7881 1440.14 48.4575C1444.86 48.1268 1447.17 50.552 1447.42 54.1133L1448.05 63.1512L1445.09 63.3584L1444.83 59.6474L1444.62 59.6621C1444.02 62.2304 1441.76 63.892 1438.37 64.1285ZM1436.29 60.1541C1436.38 61.3512 1437.22 61.8633 1439.08 61.7335C1442.46 61.497 1444.65 60.0811 1444.44 57.1482L1438.65 58.2147C1436.99 58.5414 1436.21 58.9869 1436.29 60.1541ZM1462.92 62.4119C1457.6 62.7844 1454.29 61.0909 1454.02 57.2303C1453.82 54.3573 1455.47 52.528 1458.31 51.8782L1458.29 51.6388C1455.66 51.4318 1454.22 49.7582 1454.07 47.5735C1453.82 44.102 1456.43 42.2057 1461.04 41.8835L1465.2 41.5926L1465.4 44.5254L1460.82 44.8456C1458.19 45.0297 1457.17 45.8832 1457.31 47.9182C1457.45 49.9532 1458.88 50.6052 1461.3 50.4356L1467.83 49.9794L1467.61 46.8371L1470.78 46.6153L1471 49.7576L1474.26 49.5295L1474.45 52.2229L1471.19 52.451L1471.33 54.516C1471.65 59.035 1469.15 61.9766 1462.92 62.4119ZM1462.84 59.4706C1467.09 59.1735 1468.39 57.9999 1468.17 54.8875L1468.02 52.6729L1460.89 53.1709C1458.47 53.3404 1457.1 54.3387 1457.26 56.6431C1457.41 58.8876 1458.83 59.7511 1462.84 59.4706ZM1484.3 60.6164L1481.07 60.8424L1479.67 40.7913L1484.06 40.4837L1490.65 51.6915L1492.77 55.7237L1493.01 55.7069L1494.48 51.4236L1499.39 39.4122L1503.79 39.1046L1505.19 59.1557L1501.96 59.3817L1501.1 47.0817L1501.01 44.1704L1500.77 44.1872L1499.75 47.1759L1494.99 58.6659L1491.1 58.938L1484.79 48.2222L1483.36 45.4051L1483.12 45.4219L1483.44 48.3164L1484.3 60.6164ZM1512.28 58.9605C1509.2 59.1761 1507.15 57.8756 1506.98 55.4216C1506.82 53.1172 1508.59 51.7904 1511.5 51.2561L1518.21 50.0649L1518.15 49.197C1517.98 46.743 1516.84 45.9505 1514 46.1493C1511.25 46.3418 1509.96 47.3338 1510.12 49.5185L1510.12 49.6382L1506.92 49.8621L1506.91 49.7424C1506.68 46.3607 1509.31 43.6202 1514.04 43.2895C1518.77 42.9589 1521.07 45.384 1521.32 48.9453L1521.95 57.9832L1518.99 58.1904L1518.73 54.4795L1518.52 54.4941C1517.92 57.0624 1515.66 58.7241 1512.28 58.9605ZM1510.2 54.9861C1510.28 56.1832 1511.13 56.6953 1512.98 56.5655C1516.37 56.3291 1518.55 54.9131 1518.35 51.9803L1512.56 53.0467C1510.9 53.3734 1510.12 53.819 1510.2 54.9861ZM1531.59 57.6099C1526.81 57.9447 1523.95 56.2498 1523.71 52.8082L1523.7 52.7184L1526.94 52.4924L1526.95 52.7318C1527.09 54.677 1528.3 55.2239 1531.41 55.0062C1534.32 54.8033 1535.14 54.144 1535.05 52.8272C1534.96 51.6002 1534.22 51.2614 1532.07 51.1107L1527.96 50.8567C1525.13 50.6942 1523.34 49.6164 1523.16 47.1325C1522.98 44.5289 1525.22 42.5081 1529.79 42.1879C1534.34 41.8698 1537.22 43.5028 1537.47 47.0342L1537.48 47.124L1534.28 47.3479L1534.26 47.1683C1534.14 45.4026 1533.18 44.5377 1529.88 44.7679C1527.16 44.9583 1526.25 45.6238 1526.34 47.0304C1526.43 48.1975 1527.05 48.5747 1529.32 48.717L1532.79 48.9552C1536.36 49.1571 1538.06 50.2412 1538.23 52.6952C1538.42 55.4784 1535.78 57.3169 1531.59 57.6099ZM1547.6 56.4905C1542.81 56.8253 1539.96 55.1303 1539.72 51.6887L1539.71 51.599L1542.94 51.3729L1542.96 51.6124C1543.1 53.5576 1544.31 54.1045 1547.42 53.8868C1550.32 53.6838 1551.15 53.0246 1551.06 51.7078C1550.97 50.4808 1550.23 50.142 1548.08 49.9913L1543.97 49.7372C1541.13 49.5748 1539.35 48.497 1539.17 46.0131C1538.99 43.4094 1541.22 41.3887 1545.8 41.0685C1550.35 40.7504 1553.23 42.3834 1553.48 45.9148L1553.49 46.0046L1550.28 46.2285L1550.27 46.0489C1550.15 44.2832 1549.18 43.4183 1545.89 43.6485C1543.17 43.8389 1542.25 44.5044 1542.35 45.911C1542.43 47.0781 1543.06 47.4552 1545.33 47.5976L1548.8 47.8357C1552.36 48.0377 1554.06 49.1218 1554.24 51.5758C1554.43 54.359 1551.79 56.1975 1547.6 56.4905ZM1560.95 55.5573C1557.87 55.7728 1555.82 54.4724 1555.65 52.0184C1555.49 49.714 1557.26 48.3872 1560.17 47.8529L1566.88 46.6617L1566.82 45.7938C1566.65 43.3398 1565.51 42.5473 1562.67 42.7461C1559.92 42.9386 1558.63 43.9306 1558.78 46.1152L1558.79 46.2349L1555.59 46.4589L1555.58 46.3392C1555.35 42.9574 1557.98 40.2169 1562.71 39.8863C1567.44 39.5556 1569.74 41.9807 1569.99 45.5421L1570.62 54.58L1567.66 54.7872L1567.4 51.0762L1567.19 51.0909C1566.59 53.6591 1564.33 55.3208 1560.95 55.5573ZM1558.87 51.5829C1558.95 52.7799 1559.8 53.292 1561.65 53.1623C1565.03 52.9258 1567.22 51.5098 1567.02 48.577L1561.23 49.6435C1559.56 49.9702 1558.78 50.4157 1558.87 51.5829ZM1579.58 52.6004C1575.15 52.9101 1572.32 50.3111 1572.03 46.1812C1571.74 42.0513 1574.3 39.0755 1578.82 38.7595C1581.93 38.5419 1584.37 39.7852 1585.09 42.3512L1585.27 42.3387L1585.01 38.6277L1587.97 38.4205L1588.89 51.5585C1589.24 56.5563 1586.28 58.8987 1581.4 59.2398C1577 59.5474 1573.8 57.6959 1573.55 54.1047L1576.75 53.8808C1576.9 56.0355 1578.22 56.7557 1581.39 56.5338C1584.77 56.2974 1585.93 55.2838 1585.7 51.9619L1585.44 48.3109L1585.23 48.3255C1584.85 50.6077 1582.96 52.364 1579.58 52.6004ZM1575.3 45.9531C1575.51 49.0056 1577.38 49.9574 1580.43 49.744C1583.72 49.5138 1585.42 48.0116 1585.24 45.378L1585.21 44.959C1585.03 42.4452 1583.09 41.2881 1579.95 41.5078C1576.83 41.7254 1575.08 42.9005 1575.3 45.9531ZM1599.2 52.8821C1594.33 53.2232 1590.93 50.6939 1590.58 45.726C1590.26 41.0873 1593.21 37.7531 1598.06 37.4141C1602.67 37.0918 1605.99 39.4159 1606.31 43.9348C1606.35 44.4735 1606.34 44.8946 1606.29 45.3498L1593.66 46.2329C1593.98 49.0975 1595.49 50.5254 1598.93 50.2848C1602.05 50.0671 1603.26 48.9596 1603.14 47.1939L1603.12 46.9545L1606.35 46.7285L1606.37 46.9978C1606.59 50.1701 1603.63 52.5724 1599.2 52.8821ZM1598.18 39.9621C1594.89 40.1923 1593.56 41.7591 1593.56 44.4352L1603.23 43.7592L1603.22 43.6994C1603.03 40.9461 1601.35 39.7402 1598.18 39.9621Z" fill="white" fill-opacity="0.08"/>
<path d="M-124.179 174.082L-127.411 174.308L-128.813 154.257L-118.997 153.571C-114.538 153.259 -111.307 155.589 -110.996 160.048C-110.686 164.478 -113.559 167.265 -118.018 167.577L-124.602 168.037L-124.179 174.082ZM-119.093 156.495L-125.378 156.934L-124.805 165.134L-118.52 164.695C-115.497 164.483 -114.021 163.237 -114.228 160.274C-114.435 157.312 -116.071 156.283 -119.093 156.495ZM-101.397 172.79C-106.185 173.125 -109.04 171.43 -109.281 167.988L-109.287 167.898L-106.055 167.672L-106.038 167.912C-105.902 169.857 -104.691 170.404 -101.579 170.186C-98.676 169.983 -97.85 169.324 -97.9421 168.007C-98.0279 166.78 -98.7733 166.441 -100.919 166.291L-105.027 166.037C-107.865 165.874 -109.655 164.796 -109.828 162.313C-110.01 159.709 -107.776 157.688 -103.197 157.368C-98.6481 157.05 -95.7672 158.683 -95.5203 162.214L-95.514 162.304L-98.7162 162.528L-98.7287 162.348C-98.8522 160.583 -99.8149 159.718 -103.107 159.948C-105.83 160.138 -106.746 160.804 -106.648 162.21C-106.566 163.378 -105.938 163.755 -103.673 163.897L-100.198 164.135C-96.6349 164.337 -94.9351 165.421 -94.7635 167.875C-94.5689 170.658 -97.2071 172.497 -101.397 172.79ZM-89.6921 176.783L-91.817 176.932L-92.022 173.999L-89.1191 173.796C-87.8023 173.704 -87.2888 173.307 -86.911 172.258L-86.6063 171.455L-94.9785 157.094L-91.3573 156.841L-87.0041 164.476L-85.2887 167.934L-85.0493 167.918L-83.8938 164.228L-80.9427 156.112L-77.3814 155.863L-83.9794 172.895C-85.0202 175.644 -86.6396 176.57 -89.6921 176.783ZM-67.5273 170.422C-72.4353 170.765 -75.8572 167.846 -76.1774 163.267C-76.5018 158.629 -73.5172 155.292 -68.6092 154.949C-64.1501 154.637 -60.7123 156.923 -60.4528 160.634L-60.4319 160.933L-63.6341 161.157L-63.6466 160.978C-63.8077 158.673 -65.5632 157.653 -68.4661 157.856C-71.8179 158.091 -73.2033 159.782 -72.9752 163.044C-72.7513 166.246 -71.142 167.757 -67.7901 167.523C-64.8872 167.32 -63.2909 166.065 -63.452 163.761L-63.4666 163.552L-60.2645 163.328L-60.2414 163.657C-59.9819 167.368 -63.0682 170.11 -67.5273 170.422ZM-54.5041 169.21L-57.7362 169.436L-59.1383 149.385L-55.9062 149.159L-55.226 158.885L-55.0465 158.873C-54.7135 156.323 -53.0512 153.861 -49.2505 153.596C-45.1505 153.309 -42.957 155.862 -42.7038 159.483L-42.0844 168.342L-45.2866 168.566L-45.8516 160.485C-46.0609 157.493 -47.4913 156.39 -50.5738 156.605C-54.1051 156.852 -55.2281 158.855 -55.0084 161.998L-54.5041 169.21ZM-31.8549 167.927C-36.7928 168.272 -40.3344 165.362 -40.6546 160.783C-40.979 156.145 -37.8747 152.8 -32.9368 152.455C-27.9689 152.107 -24.4294 154.988 -24.105 159.626C-23.7849 164.205 -26.887 167.58 -31.8549 167.927ZM-32.0558 165.054C-28.4346 164.801 -27.0576 162.99 -27.2773 159.848C-27.4991 156.676 -29.1168 155.045 -32.738 155.298C-36.3292 155.549 -37.7042 157.389 -37.4824 160.562C-37.2626 163.704 -35.647 165.305 -32.0558 165.054ZM-11.7836 166.223L-15.1953 166.461C-18.3975 166.685 -20.471 165.417 -20.7242 161.796L-21.2244 154.643L-23.7382 154.819L-23.9266 152.126L-21.4127 151.95L-21.6408 148.688L-18.4386 148.464L-18.2105 151.726L-12.8237 151.349L-12.6353 154.043L-18.0222 154.419L-17.5346 161.392C-17.4069 163.218 -16.5355 163.638 -14.68 163.508L-11.9866 163.32L-11.7836 166.223ZM-6.82908 165.876L-10.0612 166.102L-11.4633 146.051L-8.23118 145.825L-7.55105 155.552L-7.37149 155.539C-7.03852 152.99 -5.37621 150.528 -1.57549 150.262C2.5245 149.975 4.71794 152.528 4.97116 156.15L5.5906 165.008L2.38842 165.232L1.82339 157.152C1.61412 154.159 0.183702 153.056 -2.89877 153.271C-6.43015 153.518 -7.55315 155.522 -7.33341 158.664L-6.82908 165.876ZM15.7004 164.602C10.8223 164.943 7.42761 162.413 7.08022 157.446C6.75586 152.807 9.71047 149.473 14.5586 149.134C19.1674 148.811 22.4876 151.135 22.8036 155.654C22.8413 156.193 22.8406 156.614 22.7822 157.069L10.1531 157.952C10.4737 160.817 11.987 162.245 15.4286 162.004C18.541 161.787 19.7567 160.679 19.6332 158.913L19.6165 158.674L22.8486 158.448L22.8674 158.717C23.0892 161.89 20.1296 164.292 15.7004 164.602ZM14.6767 151.682C11.3847 151.912 10.0507 153.479 10.0574 156.155L19.7238 155.479L19.7196 155.419C19.5271 152.666 17.8489 151.46 14.6767 151.682ZM28.7243 163.39L25.4922 163.616L24.4522 148.743L27.4149 148.535L27.6954 152.546L27.9048 152.531C28.1863 150.105 29.6685 148.077 32.721 147.864C36.1027 147.627 37.7387 149.949 37.9354 152.762L38.0714 154.707L34.8692 154.931L34.7771 153.614C34.6286 151.489 33.6617 150.565 31.4471 150.719C28.9033 150.897 27.9542 152.377 28.1405 155.041L28.7243 163.39ZM44.7513 162.57C41.6688 162.786 39.6231 161.485 39.4515 159.031C39.2904 156.727 41.0621 155.4 43.9719 154.866L50.6852 153.675L50.6245 152.807C50.4529 150.353 49.3148 149.56 46.4718 149.759C43.7185 149.952 42.4346 150.944 42.5873 153.128L42.5957 153.248L39.3935 153.472L39.3852 153.352C39.1487 149.97 41.7839 147.23 46.5124 146.899C51.2409 146.569 53.5456 148.994 53.7947 152.555L54.4267 161.593L51.4639 161.8L51.2044 158.089L50.9949 158.104C50.3926 160.672 48.133 162.334 44.7513 162.57ZM42.6689 158.596C42.7527 159.793 43.6004 160.305 45.4559 160.175C48.8377 159.939 51.0242 158.523 50.8191 155.59L45.0294 156.656C43.3682 156.983 42.5873 157.429 42.6689 158.596ZM60.6004 166.274L57.3683 166.5L55.9725 146.538L58.9352 146.331L59.224 150.461L59.4934 150.442C59.8994 147.647 61.8771 145.825 65.3785 145.58C69.9873 145.258 72.8106 148.218 73.1329 152.827C73.4552 157.435 71.129 160.726 66.4904 161.05C63.1385 161.284 60.8603 159.669 60.0714 156.988L59.9517 156.996L60.6004 166.274ZM59.7424 154.004C59.9558 157.056 62.0057 158.416 65.178 158.195C68.3802 157.971 70.1498 156.614 69.9008 153.053C69.6497 149.461 67.6806 148.396 64.5682 148.614C61.2463 148.846 59.4996 150.532 59.7236 153.734L59.7424 154.004ZM78.3428 165.033L76.218 165.182L76.013 162.249L78.9159 162.046C80.2326 161.954 80.7462 161.557 81.124 160.508L81.4287 159.705L73.0565 145.344L76.6777 145.091L81.0309 152.726L82.7463 156.184L82.9857 156.168L84.1412 152.478L87.0922 144.362L90.6535 144.113L84.0556 161.145C83.0148 163.894 81.3954 164.82 78.3428 165.033Z" fill="url(#paint2_linear_2726_737)"/>
<defs>
<linearGradient id="paint0_linear_2726_737" x1="-34" y1="158.2" x2="1470" y2="158.2" gradientUnits="userSpaceOnUse">
<stop stop-color="#A67B5B" stop-opacity="0"/>
<stop offset="0.136301" stop-color="#A67B5B"/>
<stop offset="0.807053" stop-color="#A67B5B"/>
<stop offset="1" stop-color="#A67B5B" stop-opacity="0"/>
</linearGradient>
<linearGradient id="paint1_linear_2726_737" x1="1240" y1="72.9996" x2="1307.85" y2="64.9513" gradientUnits="userSpaceOnUse">
<stop stop-color="white"/>
<stop offset="1" stop-color="#2F2A27" stop-opacity="0.2"/>
</linearGradient>
<linearGradient id="paint2_linear_2726_737" x1="-129.605" y1="164.437" x2="52" y2="157" gradientUnits="userSpaceOnUse">
<stop offset="0.157583" stop-color="#2F2A27" stop-opacity="0.4"/>
<stop offset="1" stop-color="white" stop-opacity="0.2"/>
</linearGradient>
</defs>
</svg>
