<svg width="1440" height="1301" viewBox="0 0 1440 1301" fill="none" xmlns="http://www.w3.org/2000/svg">
<g opacity="0.1">
<path d="M787.741 387.497C719.912 253.377 648.416 -2.59186 905.068 46.4902C1225.88 107.843 1228.13 -428.711 1543.26 -298.509C1795.37 -194.349 1874.98 -413.291 1883.28 -535.783" stroke="url(#paint0_linear_2726_398)"/>
<path d="M786.297 401.544C718.467 267.425 646.972 11.456 903.623 60.538C1224.44 121.891 1226.68 -414.663 1541.82 -284.462C1793.93 -180.301 1873.54 -399.243 1881.83 -521.735" stroke="url(#paint1_linear_2726_398)"/>
<path d="M784.357 415.43C716.528 281.311 645.032 25.3417 901.683 74.4238C1222.5 135.776 1224.74 -400.777 1539.88 -270.576C1791.99 -166.415 1871.6 -385.358 1879.89 -507.849" stroke="url(#paint2_linear_2726_398)"/>
<path d="M781.96 429.14C714.131 295.02 642.636 39.0512 899.287 88.1332C1220.1 149.486 1222.35 -387.067 1537.48 -256.866C1789.59 -152.706 1869.2 -371.648 1877.5 -494.14" stroke="url(#paint3_linear_2726_398)"/>
<path d="M779.133 442.658C711.304 308.538 639.808 52.5695 896.46 101.652C1217.27 163.004 1219.52 -373.549 1534.66 -243.348C1786.76 -139.187 1866.38 -358.13 1874.67 -480.621" stroke="url(#paint4_linear_2726_398)"/>
<path d="M775.88 455.965C708.05 321.845 636.555 65.8766 893.206 114.959C1214.02 176.311 1216.27 -360.242 1531.4 -230.041C1783.51 -125.88 1863.12 -344.823 1871.42 -467.314" stroke="url(#paint5_linear_2726_398)"/>
<path d="M772.208 469.044C704.379 334.924 632.884 78.9555 889.535 128.038C1210.35 189.39 1212.6 -347.163 1527.73 -216.962C1779.84 -112.801 1859.45 -331.744 1867.75 -454.235" stroke="url(#paint6_linear_2726_398)"/>
<path d="M768.125 481.872C700.296 347.752 628.8 91.7834 885.452 140.865C1206.27 202.218 1208.51 -334.335 1523.65 -204.134C1775.76 -99.9734 1855.37 -318.916 1863.66 -441.407" stroke="url(#paint7_linear_2726_398)"/>
<path d="M763.635 494.429C695.805 360.31 624.31 104.341 880.961 153.423C1201.78 214.775 1204.02 -321.778 1519.16 -191.577C1771.27 -87.4161 1850.88 -306.359 1859.17 -428.85" stroke="url(#paint8_linear_2726_398)"/>
<path d="M758.731 506.69C690.902 372.571 619.407 116.602 876.058 165.684C1196.87 227.036 1199.12 -309.517 1514.25 -179.316C1766.36 -75.1551 1845.98 -294.098 1854.27 -416.589" stroke="url(#paint9_linear_2726_398)"/>
<path d="M753.415 518.628C685.586 384.508 614.09 128.539 870.741 177.621C1191.56 238.974 1193.8 -297.579 1508.94 -167.378C1761.05 -63.2176 1840.66 -282.16 1848.95 -404.652" stroke="url(#paint10_linear_2726_398)"/>
<path d="M747.69 530.211C679.861 396.092 608.366 140.123 865.017 189.205C1185.83 250.557 1188.08 -285.996 1503.21 -155.795C1755.32 -51.6341 1834.93 -270.577 1843.23 -393.068" stroke="url(#paint11_linear_2726_398)"/>
<path d="M741.548 541.416C673.719 407.297 602.224 151.328 858.875 200.41C1179.69 261.763 1181.94 -274.791 1497.07 -144.59C1749.18 -40.4287 1828.79 -259.371 1837.09 -381.863" stroke="url(#paint12_linear_2726_398)"/>
<path d="M734.996 552.201C667.166 418.081 595.671 162.112 852.322 211.194C1173.14 272.547 1175.38 -264.006 1490.52 -133.805C1742.63 -29.6446 1822.24 -248.587 1830.53 -371.079" stroke="url(#paint13_linear_2726_398)"/>
<path d="M728.028 562.542C660.199 428.422 588.703 172.453 845.355 221.535C1166.17 282.888 1168.42 -253.665 1483.55 -123.464C1735.66 -19.3035 1815.27 -238.246 1823.56 -360.738" stroke="url(#paint14_linear_2726_398)"/>
<path d="M720.647 572.4C652.818 438.281 581.323 182.312 837.974 231.394C1158.79 292.747 1161.03 -243.807 1476.17 -113.606C1728.28 -9.44486 1807.89 -228.388 1816.18 -350.879" stroke="url(#paint15_linear_2726_398)"/>
<path d="M712.873 581.741C645.043 447.622 573.548 191.653 830.199 240.735C1151.01 302.087 1153.26 -234.466 1468.4 -104.265C1720.5 -0.104043 1800.12 -219.047 1808.41 -341.538" stroke="url(#paint16_linear_2726_398)"/>
<path d="M704.699 590.531C636.87 456.412 565.375 200.443 822.026 249.525C1142.84 310.878 1145.09 -225.676 1460.22 -95.4746C1712.33 8.68624 1791.94 -210.256 1800.24 -332.748" stroke="url(#paint17_linear_2726_398)"/>
<path d="M696.145 598.742C628.316 464.623 556.82 208.654 813.472 257.736C1134.29 319.088 1136.53 -217.465 1451.67 -87.2639C1703.78 16.8969 1783.39 -202.046 1791.68 -324.537" stroke="url(#paint18_linear_2726_398)"/>
<path d="M687.231 606.342C619.401 472.222 547.906 216.254 804.557 265.336C1125.37 326.688 1127.62 -209.865 1442.75 -79.664C1694.86 24.4968 1774.47 -194.446 1782.77 -316.937" stroke="url(#paint19_linear_2726_398)"/>
<path d="M677.968 613.307C610.139 479.187 538.643 223.218 795.294 272.3C1116.11 333.653 1118.36 -202.9 1433.49 -72.6994C1685.6 31.4614 1765.21 -187.481 1773.5 -309.973" stroke="url(#paint20_linear_2726_398)"/>
<path d="M668.38 619.617C600.55 485.497 529.055 229.529 785.706 278.611C1106.52 339.963 1108.77 -196.59 1423.9 -66.3891C1676.01 37.7717 1755.62 -181.171 1763.92 -303.662" stroke="url(#paint21_linear_2726_398)"/>
<path d="M658.499 625.253C590.67 491.134 519.175 235.165 775.826 284.247C1096.64 345.599 1098.89 -190.954 1414.02 -60.7529C1666.13 43.4079 1745.74 -175.535 1754.04 -298.026" stroke="url(#paint22_linear_2726_398)"/>
<path d="M648.344 630.211C580.515 496.091 509.02 240.122 765.671 289.205C1086.49 350.557 1088.73 -185.996 1403.87 -55.7951C1655.98 48.3657 1735.59 -170.577 1743.88 -293.068" stroke="url(#paint23_linear_2726_398)"/>
<path d="M637.948 634.487C570.119 500.368 498.623 244.399 755.275 293.481C1076.09 354.833 1078.34 -181.72 1393.47 -51.5188C1645.58 52.6421 1725.19 -166.301 1733.48 -288.792" stroke="url(#paint24_linear_2726_398)"/>
<path d="M627.345 638.083C559.516 503.963 488.021 247.994 744.672 297.076C1065.49 358.429 1067.73 -178.124 1382.87 -47.9233C1634.98 56.2375 1714.59 -162.705 1722.88 -285.197" stroke="url(#paint25_linear_2726_398)"/>
<path d="M616.556 641.004C548.727 506.884 477.232 250.915 733.883 299.997C1054.7 361.35 1056.94 -175.203 1372.08 -45.0024C1624.19 59.1584 1703.8 -159.784 1712.09 -282.276" stroke="url(#paint26_linear_2726_398)"/>
<path d="M605.616 643.268C537.787 509.149 466.292 253.18 722.943 302.262C1043.76 363.614 1046 -172.939 1361.14 -42.7378C1613.25 61.4231 1692.86 -157.52 1701.15 -280.011" stroke="url(#paint27_linear_2726_398)"/>
<path d="M594.553 644.89C526.724 510.77 455.228 254.802 711.88 303.884C1032.69 365.236 1034.94 -171.317 1350.08 -41.1159C1602.18 63.0449 1681.8 -155.898 1690.09 -278.389" stroke="url(#paint28_linear_2726_398)"/>
<path d="M583.384 645.895C515.555 511.775 444.06 255.806 700.711 304.888C1021.53 366.241 1023.77 -170.313 1338.91 -40.1115C1591.02 64.0493 1670.63 -154.893 1678.92 -277.385" stroke="url(#paint29_linear_2726_398)"/>
<path d="M572.142 646.302C504.312 512.182 432.817 256.214 689.468 305.296C1010.28 366.648 1012.53 -169.905 1327.66 -39.7041C1579.77 64.4567 1659.39 -154.486 1667.68 -276.977" stroke="url(#paint30_linear_2726_398)"/>
<path d="M560.843 646.138C493.014 512.019 421.518 256.05 678.17 305.132C998.984 366.484 1001.23 -170.069 1316.37 -39.8679C1568.47 64.2929 1648.09 -154.65 1656.38 -277.141" stroke="url(#paint31_linear_2726_398)"/>
<path d="M549.505 645.432C481.675 511.312 410.18 255.343 666.831 304.425C987.645 365.778 989.892 -170.775 1305.03 -40.5744C1557.14 63.5864 1636.75 -155.356 1645.04 -277.848" stroke="url(#paint32_linear_2726_398)"/>
<path d="M538.148 644.208C470.319 510.088 398.823 254.119 655.475 303.201C976.289 364.554 978.535 -171.999 1293.67 -41.7983C1545.78 62.3625 1625.39 -156.58 1633.68 -279.072" stroke="url(#paint33_linear_2726_398)"/>
<path d="M526.789 642.492C458.96 508.373 387.465 252.404 644.116 301.486C964.93 362.839 967.177 -173.715 1282.31 -43.5136C1534.42 60.6472 1614.03 -158.295 1622.33 -280.787" stroke="url(#paint34_linear_2726_398)"/>
<path d="M515.431 640.317C447.602 506.197 376.106 250.228 632.757 299.31C953.572 360.663 955.818 -175.89 1270.95 -45.6894C1523.06 58.4714 1602.67 -160.471 1610.97 -282.963" stroke="url(#paint35_linear_2726_398)"/>
<path d="M504.093 637.704C436.263 503.584 364.768 247.615 621.419 296.697C942.233 358.05 944.48 -178.503 1259.62 -48.3025C1511.72 55.8584 1591.34 -163.084 1599.63 -285.576" stroke="url(#paint36_linear_2726_398)"/>
<path d="M492.779 634.679C424.949 500.559 353.454 244.59 610.105 293.672C930.919 355.025 933.166 -181.528 1248.3 -51.3274C1500.41 52.8335 1580.02 -166.109 1588.32 -288.601" stroke="url(#paint37_linear_2726_398)"/>
<path d="M481.497 631.264C413.668 497.144 342.172 241.176 598.824 290.258C919.638 351.61 921.885 -184.943 1237.02 -54.7419C1489.13 49.4189 1568.74 -169.524 1577.03 -292.015" stroke="url(#paint38_linear_2726_398)"/>
<path d="M470.254 627.485C402.425 493.365 330.93 237.396 587.581 286.478C908.395 347.831 910.642 -188.722 1225.78 -58.5212C1477.89 45.6396 1557.5 -173.303 1565.79 -295.794" stroke="url(#paint39_linear_2726_398)"/>
<path d="M459.001 623.341C391.172 489.221 319.676 233.252 576.328 282.334C897.142 343.687 899.389 -192.867 1214.52 -62.6655C1466.63 41.4953 1546.24 -177.447 1554.54 -299.939" stroke="url(#paint40_linear_2726_398)"/>
<path d="M447.771 618.859C379.942 484.74 308.447 228.771 565.098 277.853C885.912 339.206 888.159 -197.348 1203.29 -67.1467C1455.4 37.0141 1535.02 -181.929 1543.31 -304.42" stroke="url(#paint41_linear_2726_398)"/>
<path d="M436.613 614.494C368.784 480.374 297.289 224.405 553.94 273.487C874.754 334.84 877.001 -201.713 1192.14 -71.5124C1444.24 32.6484 1523.86 -186.294 1532.15 -308.786" stroke="url(#paint42_linear_2726_398)"/>
<path d="M425.39 610.579C357.561 476.459 286.066 220.491 542.717 269.573C863.531 330.925 865.778 -205.628 1180.91 -75.427C1433.02 28.7338 1512.63 -190.209 1520.93 -312.7" stroke="url(#paint43_linear_2726_398)"/>
<path d="M414.115 607.152C346.285 473.032 274.79 217.064 531.441 266.146C852.255 327.498 854.502 -209.055 1169.64 -78.854C1421.75 25.3068 1501.36 -193.636 1509.65 -316.127" stroke="url(#paint44_linear_2726_398)"/>
<path d="M402.792 604.246C334.963 470.126 263.468 214.158 520.119 263.24C840.933 324.592 843.18 -211.961 1158.31 -81.76C1410.42 22.4008 1490.04 -196.542 1498.33 -319.033" stroke="url(#paint45_linear_2726_398)"/>
<path d="M391.438 601.901C323.608 467.781 252.113 211.813 508.764 260.895C829.579 322.247 831.825 -214.306 1146.96 -84.1049C1399.07 20.0559 1478.68 -198.887 1486.97 -321.378" stroke="url(#paint46_linear_2726_398)"/>
<path d="M380.08 600.153C312.251 466.033 240.756 210.064 497.407 259.146C818.221 320.499 820.468 -216.054 1135.6 -85.8532C1387.71 18.3076 1467.32 -200.635 1475.62 -323.126" stroke="url(#paint47_linear_2726_398)"/>
<path d="M368.725 599.035C300.896 464.915 229.401 208.947 486.052 258.029C806.866 319.381 809.113 -217.172 1124.25 -86.9709C1376.36 17.1899 1455.97 -201.753 1464.26 -324.244" stroke="url(#paint48_linear_2726_398)"/>
<path d="M357.399 598.581C289.57 464.461 218.075 208.492 474.726 257.574C795.54 318.927 797.787 -217.626 1112.92 -87.4253C1365.03 16.7356 1444.64 -202.207 1452.94 -324.699" stroke="url(#paint49_linear_2726_398)"/>
<path d="M346.137 598.817C278.308 464.697 206.812 208.728 463.464 257.81C784.278 319.163 786.525 -217.39 1101.66 -87.1892C1353.77 16.9716 1433.38 -201.971 1441.67 -324.462" stroke="url(#paint50_linear_2726_398)"/>
<path d="M334.96 599.761C267.131 465.641 195.635 209.673 452.286 258.755C773.101 320.107 775.347 -216.446 1090.48 -86.2451C1342.59 17.9157 1422.2 -201.027 1430.5 -323.518" stroke="url(#paint51_linear_2726_398)"/>
<path d="M323.901 601.427C256.072 467.308 184.576 211.339 441.228 260.421C762.042 321.774 764.288 -214.78 1079.42 -84.5786C1331.53 19.5822 1411.14 -199.36 1419.44 -321.852" stroke="url(#paint52_linear_2726_398)"/>
<path d="M312.986 603.819C245.157 469.7 173.661 213.731 430.313 262.813C751.127 324.165 753.374 -212.388 1068.51 -82.1867C1320.62 21.9741 1400.23 -196.969 1408.52 -319.46" stroke="url(#paint53_linear_2726_398)"/>
<path d="M302.246 606.929C234.417 472.809 162.922 216.84 419.573 265.922C740.387 327.275 742.634 -209.278 1057.77 -79.0774C1309.88 25.0835 1389.49 -193.859 1397.78 -316.351" stroke="url(#paint54_linear_2726_398)"/>
<path d="M291.703 610.744C223.874 476.624 152.379 220.655 409.03 269.737C729.844 331.09 732.091 -205.463 1047.23 -75.2622C1299.33 28.8986 1378.95 -190.044 1387.24 -312.535" stroke="url(#paint55_linear_2726_398)"/>
<path d="M281.38 615.233C213.551 481.113 142.055 225.144 398.707 274.227C719.521 335.579 721.768 -200.974 1036.9 -70.7732C1289.01 33.3877 1368.62 -185.555 1376.92 -308.046" stroke="url(#paint56_linear_2726_398)"/>
<path d="M271.292 620.367C203.463 486.247 131.967 230.279 388.619 279.361C709.433 340.713 711.679 -195.84 1026.81 -65.6391C1278.92 38.5217 1358.54 -180.421 1366.83 -302.912" stroke="url(#paint57_linear_2726_398)"/>
<path d="M261.448 626.103C193.619 491.983 122.123 236.014 378.775 285.096C699.589 346.449 701.836 -190.104 1016.97 -59.9033C1269.08 44.2575 1348.69 -174.685 1356.98 -297.177" stroke="url(#paint58_linear_2726_398)"/>
<path d="M251.858 632.403C184.029 498.283 112.533 242.314 369.184 291.396C689.999 352.749 692.245 -183.805 1007.38 -53.6035C1259.49 50.5573 1339.1 -168.385 1347.39 -290.877" stroke="url(#paint59_linear_2726_398)"/>
<path d="M242.513 639.218C174.684 505.099 103.188 249.13 359.839 298.212C680.654 359.565 682.9 -176.989 998.035 -46.7876C1250.14 57.3733 1329.76 -161.569 1338.05 -284.061" stroke="url(#paint60_linear_2726_398)"/>
<path d="M233.416 646.5C165.587 512.381 94.0916 256.412 350.743 305.494C671.557 366.846 673.804 -169.707 988.939 -39.5058C1241.05 64.655 1320.66 -154.288 1328.95 -276.779" stroke="url(#paint61_linear_2726_398)"/>
<path d="M224.56 654.205C156.731 520.086 85.2353 264.117 341.887 313.199C662.701 374.551 664.948 -162.002 980.083 -31.8007C1232.19 72.3601 1311.8 -146.583 1320.1 -269.074" stroke="url(#paint62_linear_2726_398)"/>
<path d="M215.928 662.288C148.098 528.168 76.603 272.199 333.254 321.281C654.069 382.634 656.315 -153.919 971.45 -23.7182C1223.56 80.4426 1303.17 -138.5 1311.46 -260.991" stroke="url(#paint63_linear_2726_398)"/>
<path d="M207.507 670.708C139.678 536.589 68.1824 280.62 324.834 329.702C645.648 391.055 647.895 -145.499 963.03 -15.2976C1215.14 88.8632 1294.75 -130.079 1303.04 -252.571" stroke="url(#paint64_linear_2726_398)"/>
<path d="M199.282 679.421C131.453 545.301 59.9573 289.332 316.609 338.414C637.423 399.767 639.67 -136.786 954.805 -6.58517C1206.91 97.5756 1286.53 -121.367 1294.82 -243.858" stroke="url(#paint65_linear_2726_398)"/>
<path d="M191.232 688.394C123.403 554.274 51.9077 298.305 308.559 347.387C629.373 408.74 631.62 -127.814 946.755 2.38748C1198.86 106.548 1278.48 -112.394 1286.77 -234.886" stroke="url(#paint66_linear_2726_398)"/>
<path d="M183.348 697.59C115.519 563.471 44.0234 307.502 300.675 356.584C621.489 417.936 623.736 -118.617 938.871 11.5843C1190.98 115.745 1270.59 -103.198 1278.88 -225.689" stroke="url(#paint67_linear_2726_398)"/>
<path d="M175.603 706.981C107.774 572.861 36.2786 316.893 292.93 365.975C613.744 427.327 615.991 -109.226 931.126 20.9749C1183.23 125.136 1262.85 -93.8069 1271.14 -216.298" stroke="url(#paint68_linear_2726_398)"/>
<path d="M167.984 716.532C100.155 582.412 28.6591 326.444 285.31 375.526C606.125 436.878 608.371 -99.6751 923.507 30.5259C1175.61 134.687 1255.23 -84.2559 1263.52 -206.747" stroke="url(#paint69_linear_2726_398)"/>
<path d="M160.47 726.218C92.6406 592.098 21.1451 336.129 277.796 385.211C598.611 446.564 600.857 -89.9893 915.993 40.2117C1168.1 144.373 1247.71 -74.5701 1256.01 -197.062" stroke="url(#paint70_linear_2726_398)"/>
<path d="M153.043 736.014C85.2141 601.894 13.7186 345.926 270.37 395.008C591.184 456.36 593.431 -80.1929 908.566 50.0081C1160.67 154.169 1240.29 -64.7737 1248.58 -187.265" stroke="url(#paint71_linear_2726_398)"/>
<path d="M145.686 745.896C77.8571 611.776 6.36162 355.807 263.013 404.889C583.827 466.242 586.074 -70.3113 901.209 59.8897C1153.32 164.05 1232.93 -54.8921 1241.22 -177.384" stroke="url(#paint72_linear_2726_398)"/>
<path d="M138.381 755.838C70.5518 621.718 -0.943678 365.75 255.708 414.832C576.522 476.184 578.769 -60.369 893.904 69.8321C1146.01 173.993 1225.62 -44.9498 1233.92 -167.441" stroke="url(#paint73_linear_2726_398)"/>
<path d="M131.104 765.822C63.2745 631.703 -8.22102 375.734 248.43 424.816C569.245 486.168 571.491 -50.3848 886.626 79.8162C1138.73 183.977 1218.35 -34.9656 1226.64 -157.457" stroke="url(#paint74_linear_2726_398)"/>
<path d="M123.85 775.825C56.0209 641.706 -15.4746 385.737 241.177 434.819C561.991 496.171 564.238 -40.3819 879.373 89.8191C1131.48 193.98 1211.09 -24.9627 1219.39 -147.454" stroke="url(#paint75_linear_2726_398)"/>
<path d="M116.591 785.829C48.7614 651.709 -22.7341 395.74 233.917 444.822C554.731 506.175 556.978 -30.3782 872.113 99.8228C1124.22 203.984 1203.83 -14.959 1212.13 -137.45" stroke="url(#paint76_linear_2726_398)"/>
<path d="M109.315 795.808C41.486 661.688 -30.0095 405.719 226.642 454.801C547.456 516.154 549.703 -20.3992 864.838 109.802C1116.95 213.963 1196.56 -4.98003 1204.85 -127.471" stroke="url(#paint77_linear_2726_398)"/>
<path d="M102.002 805.747C34.1729 671.627 -37.3226 415.658 219.329 464.74C540.143 526.093 542.39 -10.4603 857.525 119.741C1109.63 223.902 1189.25 4.95893 1197.54 -117.532" stroke="url(#paint78_linear_2726_398)"/>
<path d="M94.6411 815.619C26.8119 681.5 -44.6836 425.531 211.968 474.613C532.782 535.966 535.029 -0.587712 850.164 129.613C1102.27 233.774 1181.88 14.8315 1190.18 -107.66" stroke="url(#paint79_linear_2726_398)"/>
<path d="M87.2106 825.415C19.3815 691.295 -52.114 435.326 204.537 484.408C525.352 545.761 527.598 9.20745 842.733 139.408C1094.84 243.569 1174.45 24.6267 1182.75 -97.8648" stroke="url(#paint80_linear_2726_398)"/>
<path d="M79.6966 835.103C11.8674 700.984 -59.6281 445.015 197.023 494.097C517.837 555.449 520.084 18.8962 835.219 149.097C1087.33 253.258 1166.94 34.3154 1175.23 -88.176" stroke="url(#paint81_linear_2726_398)"/>
<path d="M72.085 844.661C4.25586 710.541 -67.2396 454.572 189.412 503.654C510.226 565.007 512.473 28.4538 827.608 158.655C1079.72 262.816 1159.33 43.873 1167.62 -78.6184" stroke="url(#paint82_linear_2726_398)"/>
<path d="M64.3561 854.07C-3.47308 719.95 -74.9686 463.982 181.683 513.064C502.497 574.416 504.744 37.863 819.879 168.064C1071.99 272.225 1151.6 53.2822 1159.89 -69.2092" stroke="url(#paint83_linear_2726_398)"/>
<path d="M56.4978 863.308C-11.3314 729.188 -82.8269 473.219 173.825 522.301C494.639 583.654 496.885 47.1005 812.021 177.302C1064.13 281.462 1143.74 62.5197 1152.03 -59.9717" stroke="url(#paint84_linear_2726_398)"/>
<path d="M48.4921 872.343C-19.3371 738.223 -90.8326 482.254 165.819 531.336C486.633 592.689 488.88 56.1357 804.015 186.337C1056.12 290.498 1135.74 71.5549 1144.03 -50.9365" stroke="url(#paint85_linear_2726_398)"/>
<path d="M40.3328 881.15C-27.4964 747.03 -98.9919 491.061 157.659 540.143C478.474 601.496 480.72 64.9428 795.856 195.144C1047.96 299.305 1127.58 80.362 1135.87 -42.1294" stroke="url(#paint86_linear_2726_398)"/>
<path d="M31.998 889.704C-35.8312 755.584 -107.327 499.615 149.325 548.697C470.139 610.05 472.386 73.4968 787.521 203.698C1039.63 307.859 1119.24 88.916 1127.53 -33.5755" stroke="url(#paint87_linear_2726_398)"/>
<path d="M23.4835 897.972C-44.3457 763.852 -115.841 507.883 140.81 556.965C461.624 618.318 463.871 81.7646 779.006 211.966C1031.11 316.126 1110.73 97.1838 1119.02 -25.3076" stroke="url(#paint88_linear_2726_398)"/>
<path d="M14.7713 905.928C-53.0579 771.809 -124.553 515.84 132.098 564.922C452.912 626.274 455.159 89.7211 770.294 219.922C1022.4 324.083 1102.02 105.14 1110.31 -17.3511" stroke="url(#paint89_linear_2726_398)"/>
<path d="M5.85902 913.539C-61.9701 779.419 -133.466 523.45 123.186 572.532C444 633.885 446.247 97.3315 761.382 227.533C1013.49 331.693 1093.1 112.751 1101.4 -9.74074" stroke="url(#paint90_linear_2726_398)"/>
<path d="M-3.26354 920.769C-71.0927 786.65 -142.588 530.681 114.063 579.763C434.877 641.115 437.124 104.562 752.259 234.763C1004.37 338.924 1083.98 119.981 1092.27 -2.51003" stroke="url(#paint91_linear_2726_398)"/>
<path d="M-12.6006 927.594C-80.4297 793.474 -151.925 537.505 104.726 586.587C425.54 647.94 427.787 111.387 742.922 241.588C995.03 345.748 1074.64 126.806 1082.94 4.31443" stroke="url(#paint92_linear_2726_398)"/>
<path d="M-22.1526 933.979C-89.9818 799.859 -161.477 543.89 95.174 592.972C415.988 654.325 418.235 117.772 733.37 247.973C985.478 352.134 1065.09 133.191 1073.38 10.6994" stroke="url(#paint93_linear_2726_398)"/>
<path d="M-31.918 939.892C-99.7471 805.772 -171.243 549.804 85.4087 598.886C406.223 660.238 408.47 123.685 723.605 253.886C975.713 358.047 1055.33 139.104 1063.62 16.6128" stroke="url(#paint94_linear_2726_398)"/>
<path d="M-41.897 945.309C-109.726 811.19 -181.222 555.221 75.4297 604.303C396.244 665.655 398.491 129.102 713.626 259.303C965.734 363.464 1045.35 144.521 1053.64 22.03" stroke="url(#paint95_linear_2726_398)"/>
<path d="M-52.0743 950.201C-119.903 816.081 -191.399 560.112 65.2524 609.194C386.067 670.547 388.313 133.994 703.448 264.195C955.557 368.355 1035.17 149.413 1043.46 26.9214" stroke="url(#paint96_linear_2726_398)"/>
<path d="M-62.4463 954.549C-130.276 820.429 -201.771 564.46 54.8803 613.542C375.695 674.895 377.941 138.341 693.076 268.543C945.185 372.703 1024.8 153.761 1033.09 31.2693" stroke="url(#paint97_linear_2726_398)"/>
<path d="M-72.9956 958.336C-140.825 824.216 -212.32 568.247 44.3311 617.329C365.145 678.682 367.392 142.129 682.527 272.33C934.635 376.49 1014.25 157.548 1022.54 35.0564" stroke="url(#paint98_linear_2726_398)"/>
<path d="M-83.7105 961.547C-151.54 827.427 -223.035 571.458 33.6162 620.54C354.43 681.893 356.677 145.34 671.812 275.541C923.92 379.702 1003.53 160.759 1011.83 38.2676" stroke="url(#paint99_linear_2726_398)"/>
<path d="M-94.5715 964.178C-162.401 830.058 -233.896 574.089 22.7552 623.171C343.569 684.524 345.816 147.971 660.951 278.172C913.059 382.332 992.672 163.39 1000.97 40.8984" stroke="url(#paint100_linear_2726_398)"/>
<path d="M-105.559 966.224C-173.388 832.104 -244.884 576.135 11.7676 625.217C332.582 686.57 334.828 150.017 649.964 280.218C902.072 384.379 981.685 165.436 989.978 42.9446" stroke="url(#paint101_linear_2726_398)"/>
<path d="M-116.652 967.693C-184.481 833.573 -255.976 577.604 0.674903 626.686C321.489 688.039 323.736 151.486 638.871 281.687C890.979 385.847 970.592 166.905 978.885 44.4133" stroke="url(#paint102_linear_2726_398)"/>
<path d="M-127.84 968.587C-195.669 834.468 -267.164 578.499 -10.5128 627.581C310.301 688.934 312.548 152.38 627.683 282.581C879.791 386.742 959.404 167.8 967.697 45.3081" stroke="url(#paint103_linear_2726_398)"/>
<path d="M-139.091 968.923C-206.92 834.803 -278.416 578.834 -21.7642 627.916C299.05 689.269 301.297 152.716 616.432 282.917C868.54 387.077 948.153 168.135 956.446 45.6433" stroke="url(#paint104_linear_2726_398)"/>
<path d="M-150.394 968.717C-218.223 834.598 -289.719 578.629 -33.0672 627.711C287.747 689.063 289.994 152.51 605.129 282.711C857.237 386.872 936.85 167.929 945.143 45.438" stroke="url(#paint105_linear_2726_398)"/>
<path d="M-161.733 967.985C-229.562 833.865 -301.057 577.896 -44.4061 626.978C276.408 688.331 278.655 151.778 593.79 281.979C845.898 386.14 925.511 167.197 933.804 44.7055" stroke="url(#paint106_linear_2726_398)"/>
<path d="M-173.095 966.748C-240.925 832.628 -312.42 576.659 -55.7688 625.741C265.045 687.094 267.292 150.54 582.427 280.741C834.535 384.902 914.148 165.96 922.441 43.4682" stroke="url(#paint107_linear_2726_398)"/>
<path d="M-184.485 965.026C-252.315 830.906 -323.81 574.937 -67.1588 624.019C253.655 685.372 255.902 148.819 571.037 279.02C823.145 383.18 902.758 164.238 911.051 41.7463" stroke="url(#paint108_linear_2726_398)"/>
<path d="M-195.962 962.929C-263.792 828.809 -335.287 572.841 -78.6357 621.923C242.179 683.275 244.425 146.722 559.56 276.923C811.669 381.084 891.281 162.141 899.574 39.6496" stroke="url(#paint109_linear_2726_398)"/>
<path d="M-207.323 961.097C-275.152 826.977 -346.647 571.008 -89.9958 620.091C230.818 681.443 233.065 144.89 548.2 275.091C800.308 379.252 879.921 160.309 888.214 37.8176" stroke="url(#paint110_linear_2726_398)"/>
<path d="M-218.672 959.633C-286.501 825.513 -357.997 569.544 -101.346 618.626C219.469 679.979 221.715 143.425 536.851 273.626C788.959 377.787 868.572 158.845 876.865 36.3533" stroke="url(#paint111_linear_2726_398)"/>
<path d="M-230.019 958.577C-297.848 824.457 -369.344 568.489 -112.692 617.571C208.122 678.923 210.369 142.37 525.504 272.571C777.612 376.732 857.225 157.789 865.518 35.2978" stroke="url(#paint112_linear_2726_398)"/>
<path d="M-241.341 957.974C-309.17 823.854 -380.665 567.886 -124.014 616.968C196.8 678.32 199.047 141.767 514.182 271.968C766.29 376.129 845.903 157.186 854.196 34.6948" stroke="url(#paint113_linear_2726_398)"/>
<path d="M-252.623 957.884C-320.452 823.764 -391.947 567.795 -135.296 616.877C185.518 678.23 187.765 141.677 502.9 271.878C755.008 376.039 834.621 157.096 842.914 34.6045" stroke="url(#paint114_linear_2726_398)"/>
<path d="M-263.847 958.369C-331.676 824.249 -403.171 568.28 -146.52 617.362C174.294 678.715 176.541 142.162 491.676 272.363C743.784 376.524 823.397 157.581 831.69 35.0896" stroke="url(#paint115_linear_2726_398)"/>
<path d="M-274.979 959.507C-342.808 825.387 -414.303 569.418 -157.652 618.5C163.162 679.853 165.409 143.3 480.544 273.501C732.652 377.662 812.265 158.719 820.558 36.2275" stroke="url(#paint116_linear_2726_398)"/>
<path d="M-285.982 961.384C-353.811 827.265 -425.307 571.296 -168.655 620.378C152.159 681.731 154.406 145.177 469.541 275.378C721.649 379.539 801.262 160.597 809.555 38.1052" stroke="url(#paint117_linear_2726_398)"/>
<path d="M-296.803 964.107C-364.632 829.987 -436.128 574.018 -179.476 623.101C141.338 684.453 143.585 147.9 458.72 278.101C710.828 382.262 790.441 163.319 798.734 40.8276" stroke="url(#paint118_linear_2726_398)"/>
<path d="M-307.363 967.787C-375.192 833.667 -446.688 577.698 -190.036 626.78C130.778 688.133 133.024 151.58 448.16 281.781C700.268 385.941 779.881 166.999 788.174 44.5073" stroke="url(#paint119_linear_2726_398)"/>
<path d="M-317.57 972.546C-385.399 838.427 -456.894 582.458 -200.243 631.54C120.571 692.893 122.818 156.339 437.953 286.54C690.061 390.701 769.674 171.758 777.967 49.2671" stroke="url(#paint120_linear_2726_398)"/>
<path d="M-327.297 978.504C-395.126 844.384 -466.622 588.415 -209.97 637.497C110.844 698.85 113.09 162.297 428.226 292.498C680.334 396.658 759.947 177.716 768.24 55.2243" stroke="url(#paint121_linear_2726_398)"/>
<path d="M-336.39 985.767C-404.219 851.647 -475.715 595.678 -219.063 644.76C101.751 706.113 103.998 169.56 419.133 299.761C671.241 403.922 750.854 184.979 759.147 62.4875" stroke="url(#paint122_linear_2726_398)"/>
<path d="M-344.663 994.385C-412.492 860.265 -483.988 604.296 -227.337 653.378C93.4777 714.731 95.7244 178.178 410.86 308.379C662.968 412.54 742.581 193.597 750.874 71.1054" stroke="url(#paint123_linear_2726_398)"/>
<path d="M-351.949 1004.35C-419.778 870.227 -491.273 614.258 -234.622 663.341C86.1923 724.693 88.439 188.14 403.574 318.341C655.682 422.502 735.295 203.559 743.588 81.0676" stroke="url(#paint124_linear_2726_398)"/>
<path d="M-358.095 1015.55C-425.924 881.427 -497.419 625.459 -240.768 674.541C80.0462 735.893 82.2929 199.34 397.428 329.541C649.536 433.702 729.149 214.759 737.442 92.2678" stroke="url(#paint125_linear_2726_398)"/>
<path d="M-363.01 1027.8C-430.839 893.68 -502.335 637.711 -245.683 686.793C75.131 748.146 77.3777 211.592 392.513 341.793C644.621 445.954 724.234 227.012 732.527 104.52" stroke="url(#paint126_linear_2726_398)"/>
<path d="M-366.683 1040.88C-434.512 906.76 -506.008 650.791 -249.356 699.873C71.4579 761.226 73.7046 224.672 388.84 354.873C640.948 459.034 720.561 240.092 728.854 117.6" stroke="url(#paint127_linear_2726_398)"/>
<path d="M-369.174 1054.56C-437.003 920.438 -508.498 664.469 -251.847 713.551C68.9672 774.904 71.2139 238.351 386.349 368.552C638.457 472.713 718.07 253.77 726.363 131.279" stroke="url(#paint128_linear_2726_398)"/>
<path d="M-370.571 1068.64C-438.4 934.518 -509.895 678.549 -253.244 727.631C67.5702 788.984 69.8169 252.43 384.952 382.631C637.06 486.792 716.673 267.85 724.966 145.358" stroke="url(#paint129_linear_2726_398)"/>
<path d="M-370.999 1082.96C-438.828 948.839 -510.324 692.87 -253.672 741.952C67.1419 803.305 69.3886 266.751 384.524 396.952C636.632 501.113 716.245 282.171 724.538 159.679" stroke="url(#paint130_linear_2726_398)"/>
<path d="M-370.568 1097.41C-438.397 963.292 -509.893 707.323 -253.241 756.405C67.5729 817.758 69.8196 281.205 384.955 411.406C637.063 515.566 716.676 296.624 724.969 174.132" stroke="url(#paint131_linear_2726_398)"/>
<path d="M-369.388 1111.91C-437.217 977.788 -508.713 721.819 -252.062 770.901C68.7526 832.253 70.9993 295.7 386.134 425.901C638.243 530.062 717.856 311.119 726.148 188.628" stroke="url(#paint132_linear_2726_398)"/>
<path d="M-367.549 1126.39C-435.378 992.268 -506.873 736.299 -250.222 785.381C70.5921 846.734 72.8388 310.181 387.974 440.382C640.082 544.542 719.695 325.6 727.988 203.108" stroke="url(#paint133_linear_2726_398)"/>
<path d="M-365.14 1140.82C-432.969 1006.7 -504.465 750.73 -247.813 799.812C73.0009 861.165 75.2476 324.612 390.383 454.813C642.491 558.974 722.104 340.031 730.397 217.54" stroke="url(#paint134_linear_2726_398)"/>
<path d="M-362.219 1155.17C-430.048 1021.05 -501.544 765.081 -244.892 814.163C75.9219 875.516 78.1686 338.963 393.304 469.164C645.412 573.324 725.025 354.382 733.318 231.89" stroke="url(#paint135_linear_2726_398)"/>
<path d="M-358.849 1169.42C-426.678 1035.3 -498.173 779.334 -241.522 828.416C79.2921 889.768 81.5388 353.215 396.674 483.416C648.782 587.577 728.395 368.634 736.688 246.143" stroke="url(#paint136_linear_2726_398)"/>
<path d="M-355.076 1183.57C-422.906 1049.45 -494.401 793.481 -237.75 842.563C83.0645 903.915 85.3112 367.362 400.446 497.563C652.555 601.724 732.167 382.781 740.46 260.29" stroke="url(#paint137_linear_2726_398)"/>
<path d="M-350.935 1197.6C-418.764 1063.48 -490.26 807.507 -233.609 856.589C87.2056 917.941 89.4523 381.388 404.587 511.589C656.696 615.75 736.309 396.807 744.601 274.316" stroke="url(#paint138_linear_2726_398)"/>
<path d="M-346.463 1211.5C-414.292 1077.38 -485.787 821.411 -229.136 870.493C91.6781 931.845 93.9248 395.292 409.06 525.493C661.168 629.654 740.781 410.711 749.074 288.22" stroke="url(#paint139_linear_2726_398)"/>
<path d="M-341.68 1225.28C-409.51 1091.16 -481.005 835.189 -224.354 884.271C96.4605 945.624 98.7072 409.07 413.842 539.272C665.951 643.432 745.563 424.49 753.856 301.998" stroke="url(#paint140_linear_2726_398)"/>
<path d="M-336.616 1238.92C-404.445 1104.8 -475.94 848.832 -219.289 897.914C101.525 959.267 103.772 422.714 418.907 552.915C671.015 657.076 750.628 438.133 758.921 315.642" stroke="url(#paint141_linear_2726_398)"/>
<path d="M-331.276 1252.43C-399.106 1118.31 -470.601 862.34 -213.95 911.422C106.864 972.775 109.111 436.221 424.246 566.422C676.354 670.583 755.967 451.641 764.26 329.149" stroke="url(#paint142_linear_2726_398)"/>
<path d="M-325.682 1265.79C-393.512 1131.67 -465.007 875.704 -208.356 924.786C112.458 986.139 114.705 449.586 429.84 579.787C681.948 683.947 761.561 465.005 769.854 342.513" stroke="url(#paint143_linear_2726_398)"/>
<path d="M-319.834 1279.01C-387.663 1144.89 -459.158 888.918 -202.507 938C118.307 999.353 120.554 462.799 435.689 593.001C687.797 697.161 767.41 478.219 775.703 355.727" stroke="url(#paint144_linear_2726_398)"/>
<path d="M-313.722 1292.1C-381.551 1157.98 -453.047 902.01 -196.395 951.092C124.419 1012.45 126.666 475.892 441.801 606.093C693.909 710.254 773.522 491.311 781.815 368.82" stroke="url(#paint145_linear_2726_398)"/>
</g>
<defs>
<linearGradient id="paint0_linear_2726_398" x1="736.623" y1="137.748" x2="1903.55" y2="-266.691" gradientUnits="userSpaceOnUse">
<stop stop-color="#EBB075"/>
<stop offset="1" stop-color="#7A583D"/>
</linearGradient>
<linearGradient id="paint1_linear_2726_398" x1="735.179" y1="151.796" x2="1902.11" y2="-252.644" gradientUnits="userSpaceOnUse">
<stop stop-color="#EBB075"/>
<stop offset="1" stop-color="#7A583D"/>
</linearGradient>
<linearGradient id="paint2_linear_2726_398" x1="733.239" y1="165.682" x2="1900.17" y2="-238.758" gradientUnits="userSpaceOnUse">
<stop stop-color="#EBB075"/>
<stop offset="1" stop-color="#7A583D"/>
</linearGradient>
<linearGradient id="paint3_linear_2726_398" x1="730.843" y1="179.391" x2="1897.77" y2="-225.048" gradientUnits="userSpaceOnUse">
<stop stop-color="#EBB075"/>
<stop offset="1" stop-color="#7A583D"/>
</linearGradient>
<linearGradient id="paint4_linear_2726_398" x1="728.015" y1="192.909" x2="1894.94" y2="-211.53" gradientUnits="userSpaceOnUse">
<stop stop-color="#EBB075"/>
<stop offset="1" stop-color="#7A583D"/>
</linearGradient>
<linearGradient id="paint5_linear_2726_398" x1="724.762" y1="206.217" x2="1891.69" y2="-198.223" gradientUnits="userSpaceOnUse">
<stop stop-color="#EBB075"/>
<stop offset="1" stop-color="#7A583D"/>
</linearGradient>
<linearGradient id="paint6_linear_2726_398" x1="721.091" y1="219.295" x2="1888.02" y2="-185.144" gradientUnits="userSpaceOnUse">
<stop stop-color="#EBB075"/>
<stop offset="1" stop-color="#7A583D"/>
</linearGradient>
<linearGradient id="paint7_linear_2726_398" x1="717.007" y1="232.123" x2="1883.94" y2="-172.316" gradientUnits="userSpaceOnUse">
<stop stop-color="#EBB075"/>
<stop offset="1" stop-color="#7A583D"/>
</linearGradient>
<linearGradient id="paint8_linear_2726_398" x1="712.517" y1="244.681" x2="1879.44" y2="-159.759" gradientUnits="userSpaceOnUse">
<stop stop-color="#EBB075"/>
<stop offset="1" stop-color="#7A583D"/>
</linearGradient>
<linearGradient id="paint9_linear_2726_398" x1="707.614" y1="256.942" x2="1874.54" y2="-147.498" gradientUnits="userSpaceOnUse">
<stop stop-color="#EBB075"/>
<stop offset="1" stop-color="#7A583D"/>
</linearGradient>
<linearGradient id="paint10_linear_2726_398" x1="702.297" y1="268.879" x2="1869.22" y2="-135.56" gradientUnits="userSpaceOnUse">
<stop stop-color="#EBB075"/>
<stop offset="1" stop-color="#7A583D"/>
</linearGradient>
<linearGradient id="paint11_linear_2726_398" x1="696.573" y1="280.463" x2="1863.5" y2="-123.977" gradientUnits="userSpaceOnUse">
<stop stop-color="#EBB075"/>
<stop offset="1" stop-color="#7A583D"/>
</linearGradient>
<linearGradient id="paint12_linear_2726_398" x1="690.431" y1="291.668" x2="1857.36" y2="-112.772" gradientUnits="userSpaceOnUse">
<stop stop-color="#EBB075"/>
<stop offset="1" stop-color="#7A583D"/>
</linearGradient>
<linearGradient id="paint13_linear_2726_398" x1="683.878" y1="302.452" x2="1850.81" y2="-101.987" gradientUnits="userSpaceOnUse">
<stop stop-color="#EBB075"/>
<stop offset="1" stop-color="#7A583D"/>
</linearGradient>
<linearGradient id="paint14_linear_2726_398" x1="676.911" y1="312.793" x2="1843.84" y2="-91.6463" gradientUnits="userSpaceOnUse">
<stop stop-color="#EBB075"/>
<stop offset="1" stop-color="#7A583D"/>
</linearGradient>
<linearGradient id="paint15_linear_2726_398" x1="669.53" y1="322.652" x2="1836.46" y2="-81.7876" gradientUnits="userSpaceOnUse">
<stop stop-color="#EBB075"/>
<stop offset="1" stop-color="#7A583D"/>
</linearGradient>
<linearGradient id="paint16_linear_2726_398" x1="661.755" y1="331.993" x2="1828.68" y2="-72.4468" gradientUnits="userSpaceOnUse">
<stop stop-color="#EBB075"/>
<stop offset="1" stop-color="#7A583D"/>
</linearGradient>
<linearGradient id="paint17_linear_2726_398" x1="653.582" y1="340.783" x2="1820.51" y2="-63.6565" gradientUnits="userSpaceOnUse">
<stop stop-color="#EBB075"/>
<stop offset="1" stop-color="#7A583D"/>
</linearGradient>
<linearGradient id="paint18_linear_2726_398" x1="645.028" y1="348.994" x2="1811.96" y2="-55.4458" gradientUnits="userSpaceOnUse">
<stop stop-color="#EBB075"/>
<stop offset="1" stop-color="#7A583D"/>
</linearGradient>
<linearGradient id="paint19_linear_2726_398" x1="636.113" y1="356.593" x2="1803.04" y2="-47.846" gradientUnits="userSpaceOnUse">
<stop stop-color="#EBB075"/>
<stop offset="1" stop-color="#7A583D"/>
</linearGradient>
<linearGradient id="paint20_linear_2726_398" x1="626.85" y1="363.558" x2="1793.78" y2="-40.8814" gradientUnits="userSpaceOnUse">
<stop stop-color="#EBB075"/>
<stop offset="1" stop-color="#7A583D"/>
</linearGradient>
<linearGradient id="paint21_linear_2726_398" x1="617.262" y1="369.868" x2="1784.19" y2="-34.5711" gradientUnits="userSpaceOnUse">
<stop stop-color="#EBB075"/>
<stop offset="1" stop-color="#7A583D"/>
</linearGradient>
<linearGradient id="paint22_linear_2726_398" x1="607.382" y1="375.505" x2="1774.31" y2="-28.9349" gradientUnits="userSpaceOnUse">
<stop stop-color="#EBB075"/>
<stop offset="1" stop-color="#7A583D"/>
</linearGradient>
<linearGradient id="paint23_linear_2726_398" x1="597.227" y1="380.462" x2="1764.15" y2="-23.9771" gradientUnits="userSpaceOnUse">
<stop stop-color="#EBB075"/>
<stop offset="1" stop-color="#7A583D"/>
</linearGradient>
<linearGradient id="paint24_linear_2726_398" x1="586.83" y1="384.739" x2="1753.76" y2="-19.7007" gradientUnits="userSpaceOnUse">
<stop stop-color="#EBB075"/>
<stop offset="1" stop-color="#7A583D"/>
</linearGradient>
<linearGradient id="paint25_linear_2726_398" x1="576.228" y1="388.334" x2="1743.16" y2="-16.1053" gradientUnits="userSpaceOnUse">
<stop stop-color="#EBB075"/>
<stop offset="1" stop-color="#7A583D"/>
</linearGradient>
<linearGradient id="paint26_linear_2726_398" x1="565.439" y1="391.255" x2="1732.37" y2="-13.1844" gradientUnits="userSpaceOnUse">
<stop stop-color="#EBB075"/>
<stop offset="1" stop-color="#7A583D"/>
</linearGradient>
<linearGradient id="paint27_linear_2726_398" x1="554.499" y1="393.52" x2="1721.43" y2="-10.9197" gradientUnits="userSpaceOnUse">
<stop stop-color="#EBB075"/>
<stop offset="1" stop-color="#7A583D"/>
</linearGradient>
<linearGradient id="paint28_linear_2726_398" x1="543.436" y1="395.142" x2="1710.36" y2="-9.2979" gradientUnits="userSpaceOnUse">
<stop stop-color="#EBB075"/>
<stop offset="1" stop-color="#7A583D"/>
</linearGradient>
<linearGradient id="paint29_linear_2726_398" x1="532.267" y1="396.146" x2="1699.19" y2="-8.29351" gradientUnits="userSpaceOnUse">
<stop stop-color="#EBB075"/>
<stop offset="1" stop-color="#7A583D"/>
</linearGradient>
<linearGradient id="paint30_linear_2726_398" x1="521.024" y1="396.553" x2="1687.95" y2="-7.88604" gradientUnits="userSpaceOnUse">
<stop stop-color="#EBB075"/>
<stop offset="1" stop-color="#7A583D"/>
</linearGradient>
<linearGradient id="paint31_linear_2726_398" x1="509.726" y1="396.39" x2="1676.65" y2="-8.04985" gradientUnits="userSpaceOnUse">
<stop stop-color="#EBB075"/>
<stop offset="1" stop-color="#7A583D"/>
</linearGradient>
<linearGradient id="paint32_linear_2726_398" x1="498.387" y1="395.683" x2="1665.31" y2="-8.7564" gradientUnits="userSpaceOnUse">
<stop stop-color="#EBB075"/>
<stop offset="1" stop-color="#7A583D"/>
</linearGradient>
<linearGradient id="paint33_linear_2726_398" x1="487.03" y1="394.459" x2="1653.96" y2="-9.98027" gradientUnits="userSpaceOnUse">
<stop stop-color="#EBB075"/>
<stop offset="1" stop-color="#7A583D"/>
</linearGradient>
<linearGradient id="paint34_linear_2726_398" x1="475.672" y1="392.744" x2="1642.6" y2="-11.6956" gradientUnits="userSpaceOnUse">
<stop stop-color="#EBB075"/>
<stop offset="1" stop-color="#7A583D"/>
</linearGradient>
<linearGradient id="paint35_linear_2726_398" x1="464.313" y1="390.568" x2="1631.24" y2="-13.8714" gradientUnits="userSpaceOnUse">
<stop stop-color="#EBB075"/>
<stop offset="1" stop-color="#7A583D"/>
</linearGradient>
<linearGradient id="paint36_linear_2726_398" x1="452.975" y1="387.955" x2="1619.9" y2="-16.4844" gradientUnits="userSpaceOnUse">
<stop stop-color="#EBB075"/>
<stop offset="1" stop-color="#7A583D"/>
</linearGradient>
<linearGradient id="paint37_linear_2726_398" x1="441.661" y1="384.93" x2="1608.59" y2="-19.5093" gradientUnits="userSpaceOnUse">
<stop stop-color="#EBB075"/>
<stop offset="1" stop-color="#7A583D"/>
</linearGradient>
<linearGradient id="paint38_linear_2726_398" x1="430.38" y1="381.516" x2="1597.31" y2="-22.9239" gradientUnits="userSpaceOnUse">
<stop stop-color="#EBB075"/>
<stop offset="1" stop-color="#7A583D"/>
</linearGradient>
<linearGradient id="paint39_linear_2726_398" x1="419.137" y1="377.736" x2="1586.06" y2="-26.7032" gradientUnits="userSpaceOnUse">
<stop stop-color="#EBB075"/>
<stop offset="1" stop-color="#7A583D"/>
</linearGradient>
<linearGradient id="paint40_linear_2726_398" x1="407.884" y1="373.592" x2="1574.81" y2="-30.8475" gradientUnits="userSpaceOnUse">
<stop stop-color="#EBB075"/>
<stop offset="1" stop-color="#7A583D"/>
</linearGradient>
<linearGradient id="paint41_linear_2726_398" x1="396.654" y1="369.111" x2="1563.58" y2="-35.3287" gradientUnits="userSpaceOnUse">
<stop stop-color="#EBB075"/>
<stop offset="1" stop-color="#7A583D"/>
</linearGradient>
<linearGradient id="paint42_linear_2726_398" x1="385.496" y1="364.745" x2="1552.42" y2="-39.6944" gradientUnits="userSpaceOnUse">
<stop stop-color="#EBB075"/>
<stop offset="1" stop-color="#7A583D"/>
</linearGradient>
<linearGradient id="paint43_linear_2726_398" x1="374.273" y1="360.831" x2="1541.2" y2="-43.6089" gradientUnits="userSpaceOnUse">
<stop stop-color="#EBB075"/>
<stop offset="1" stop-color="#7A583D"/>
</linearGradient>
<linearGradient id="paint44_linear_2726_398" x1="362.997" y1="357.404" x2="1529.92" y2="-47.0359" gradientUnits="userSpaceOnUse">
<stop stop-color="#EBB075"/>
<stop offset="1" stop-color="#7A583D"/>
</linearGradient>
<linearGradient id="paint45_linear_2726_398" x1="351.675" y1="354.498" x2="1518.6" y2="-49.9419" gradientUnits="userSpaceOnUse">
<stop stop-color="#EBB075"/>
<stop offset="1" stop-color="#7A583D"/>
</linearGradient>
<linearGradient id="paint46_linear_2726_398" x1="340.32" y1="352.153" x2="1507.25" y2="-52.2869" gradientUnits="userSpaceOnUse">
<stop stop-color="#EBB075"/>
<stop offset="1" stop-color="#7A583D"/>
</linearGradient>
<linearGradient id="paint47_linear_2726_398" x1="328.963" y1="350.404" x2="1495.89" y2="-54.0352" gradientUnits="userSpaceOnUse">
<stop stop-color="#EBB075"/>
<stop offset="1" stop-color="#7A583D"/>
</linearGradient>
<linearGradient id="paint48_linear_2726_398" x1="317.608" y1="349.287" x2="1484.54" y2="-55.1529" gradientUnits="userSpaceOnUse">
<stop stop-color="#EBB075"/>
<stop offset="1" stop-color="#7A583D"/>
</linearGradient>
<linearGradient id="paint49_linear_2726_398" x1="306.282" y1="348.832" x2="1473.21" y2="-55.6072" gradientUnits="userSpaceOnUse">
<stop stop-color="#EBB075"/>
<stop offset="1" stop-color="#7A583D"/>
</linearGradient>
<linearGradient id="paint50_linear_2726_398" x1="295.02" y1="349.068" x2="1461.95" y2="-55.3711" gradientUnits="userSpaceOnUse">
<stop stop-color="#EBB075"/>
<stop offset="1" stop-color="#7A583D"/>
</linearGradient>
<linearGradient id="paint51_linear_2726_398" x1="283.842" y1="350.012" x2="1450.77" y2="-54.4271" gradientUnits="userSpaceOnUse">
<stop stop-color="#EBB075"/>
<stop offset="1" stop-color="#7A583D"/>
</linearGradient>
<linearGradient id="paint52_linear_2726_398" x1="272.783" y1="351.679" x2="1439.71" y2="-52.7605" gradientUnits="userSpaceOnUse">
<stop stop-color="#EBB075"/>
<stop offset="1" stop-color="#7A583D"/>
</linearGradient>
<linearGradient id="paint53_linear_2726_398" x1="261.869" y1="354.071" x2="1428.8" y2="-50.3687" gradientUnits="userSpaceOnUse">
<stop stop-color="#EBB075"/>
<stop offset="1" stop-color="#7A583D"/>
</linearGradient>
<linearGradient id="paint54_linear_2726_398" x1="251.129" y1="357.18" x2="1418.06" y2="-47.2593" gradientUnits="userSpaceOnUse">
<stop stop-color="#EBB075"/>
<stop offset="1" stop-color="#7A583D"/>
</linearGradient>
<linearGradient id="paint55_linear_2726_398" x1="240.586" y1="360.995" x2="1407.51" y2="-43.4441" gradientUnits="userSpaceOnUse">
<stop stop-color="#EBB075"/>
<stop offset="1" stop-color="#7A583D"/>
</linearGradient>
<linearGradient id="paint56_linear_2726_398" x1="230.263" y1="365.484" x2="1397.19" y2="-38.9551" gradientUnits="userSpaceOnUse">
<stop stop-color="#EBB075"/>
<stop offset="1" stop-color="#7A583D"/>
</linearGradient>
<linearGradient id="paint57_linear_2726_398" x1="220.174" y1="370.618" x2="1387.1" y2="-33.8211" gradientUnits="userSpaceOnUse">
<stop stop-color="#EBB075"/>
<stop offset="1" stop-color="#7A583D"/>
</linearGradient>
<linearGradient id="paint58_linear_2726_398" x1="210.33" y1="376.354" x2="1377.26" y2="-28.0853" gradientUnits="userSpaceOnUse">
<stop stop-color="#EBB075"/>
<stop offset="1" stop-color="#7A583D"/>
</linearGradient>
<linearGradient id="paint59_linear_2726_398" x1="200.74" y1="382.654" x2="1367.67" y2="-21.7854" gradientUnits="userSpaceOnUse">
<stop stop-color="#EBB075"/>
<stop offset="1" stop-color="#7A583D"/>
</linearGradient>
<linearGradient id="paint60_linear_2726_398" x1="191.395" y1="389.47" x2="1358.32" y2="-14.9695" gradientUnits="userSpaceOnUse">
<stop stop-color="#EBB075"/>
<stop offset="1" stop-color="#7A583D"/>
</linearGradient>
<linearGradient id="paint61_linear_2726_398" x1="182.299" y1="396.752" x2="1349.23" y2="-7.68779" gradientUnits="userSpaceOnUse">
<stop stop-color="#EBB075"/>
<stop offset="1" stop-color="#7A583D"/>
</linearGradient>
<linearGradient id="paint62_linear_2726_398" x1="173.442" y1="404.457" x2="1340.37" y2="0.0172849" gradientUnits="userSpaceOnUse">
<stop stop-color="#EBB075"/>
<stop offset="1" stop-color="#7A583D"/>
</linearGradient>
<linearGradient id="paint63_linear_2726_398" x1="164.81" y1="412.539" x2="1331.74" y2="8.0998" gradientUnits="userSpaceOnUse">
<stop stop-color="#EBB075"/>
<stop offset="1" stop-color="#7A583D"/>
</linearGradient>
<linearGradient id="paint64_linear_2726_398" x1="156.39" y1="420.96" x2="1323.32" y2="16.5205" gradientUnits="userSpaceOnUse">
<stop stop-color="#EBB075"/>
<stop offset="1" stop-color="#7A583D"/>
</linearGradient>
<linearGradient id="paint65_linear_2726_398" x1="148.164" y1="429.672" x2="1315.09" y2="25.2329" gradientUnits="userSpaceOnUse">
<stop stop-color="#EBB075"/>
<stop offset="1" stop-color="#7A583D"/>
</linearGradient>
<linearGradient id="paint66_linear_2726_398" x1="140.115" y1="438.645" x2="1307.04" y2="34.2055" gradientUnits="userSpaceOnUse">
<stop stop-color="#EBB075"/>
<stop offset="1" stop-color="#7A583D"/>
</linearGradient>
<linearGradient id="paint67_linear_2726_398" x1="132.231" y1="447.842" x2="1299.16" y2="43.4023" gradientUnits="userSpaceOnUse">
<stop stop-color="#EBB075"/>
<stop offset="1" stop-color="#7A583D"/>
</linearGradient>
<linearGradient id="paint68_linear_2726_398" x1="124.486" y1="457.232" x2="1291.41" y2="52.7929" gradientUnits="userSpaceOnUse">
<stop stop-color="#EBB075"/>
<stop offset="1" stop-color="#7A583D"/>
</linearGradient>
<linearGradient id="paint69_linear_2726_398" x1="116.866" y1="466.783" x2="1283.79" y2="62.3439" gradientUnits="userSpaceOnUse">
<stop stop-color="#EBB075"/>
<stop offset="1" stop-color="#7A583D"/>
</linearGradient>
<linearGradient id="paint70_linear_2726_398" x1="109.352" y1="476.469" x2="1276.28" y2="72.0297" gradientUnits="userSpaceOnUse">
<stop stop-color="#EBB075"/>
<stop offset="1" stop-color="#7A583D"/>
</linearGradient>
<linearGradient id="paint71_linear_2726_398" x1="101.926" y1="486.266" x2="1268.85" y2="81.8261" gradientUnits="userSpaceOnUse">
<stop stop-color="#EBB075"/>
<stop offset="1" stop-color="#7A583D"/>
</linearGradient>
<linearGradient id="paint72_linear_2726_398" x1="94.5688" y1="496.147" x2="1261.5" y2="91.7077" gradientUnits="userSpaceOnUse">
<stop stop-color="#EBB075"/>
<stop offset="1" stop-color="#7A583D"/>
</linearGradient>
<linearGradient id="paint73_linear_2726_398" x1="87.2635" y1="506.09" x2="1254.19" y2="101.65" gradientUnits="userSpaceOnUse">
<stop stop-color="#EBB075"/>
<stop offset="1" stop-color="#7A583D"/>
</linearGradient>
<linearGradient id="paint74_linear_2726_398" x1="79.9861" y1="516.074" x2="1246.91" y2="111.634" gradientUnits="userSpaceOnUse">
<stop stop-color="#EBB075"/>
<stop offset="1" stop-color="#7A583D"/>
</linearGradient>
<linearGradient id="paint75_linear_2726_398" x1="72.7326" y1="526.077" x2="1239.66" y2="121.637" gradientUnits="userSpaceOnUse">
<stop stop-color="#EBB075"/>
<stop offset="1" stop-color="#7A583D"/>
</linearGradient>
<linearGradient id="paint76_linear_2726_398" x1="65.4731" y1="536.08" x2="1232.4" y2="131.641" gradientUnits="userSpaceOnUse">
<stop stop-color="#EBB075"/>
<stop offset="1" stop-color="#7A583D"/>
</linearGradient>
<linearGradient id="paint77_linear_2726_398" x1="58.1977" y1="546.059" x2="1225.13" y2="141.62" gradientUnits="userSpaceOnUse">
<stop stop-color="#EBB075"/>
<stop offset="1" stop-color="#7A583D"/>
</linearGradient>
<linearGradient id="paint78_linear_2726_398" x1="50.8845" y1="555.998" x2="1217.81" y2="151.559" gradientUnits="userSpaceOnUse">
<stop stop-color="#EBB075"/>
<stop offset="1" stop-color="#7A583D"/>
</linearGradient>
<linearGradient id="paint79_linear_2726_398" x1="43.5236" y1="565.871" x2="1210.45" y2="161.431" gradientUnits="userSpaceOnUse">
<stop stop-color="#EBB075"/>
<stop offset="1" stop-color="#7A583D"/>
</linearGradient>
<linearGradient id="paint80_linear_2726_398" x1="36.0931" y1="575.666" x2="1203.02" y2="171.227" gradientUnits="userSpaceOnUse">
<stop stop-color="#EBB075"/>
<stop offset="1" stop-color="#7A583D"/>
</linearGradient>
<linearGradient id="paint81_linear_2726_398" x1="28.5791" y1="585.355" x2="1195.51" y2="180.915" gradientUnits="userSpaceOnUse">
<stop stop-color="#EBB075"/>
<stop offset="1" stop-color="#7A583D"/>
</linearGradient>
<linearGradient id="paint82_linear_2726_398" x1="20.9675" y1="594.912" x2="1187.9" y2="190.473" gradientUnits="userSpaceOnUse">
<stop stop-color="#EBB075"/>
<stop offset="1" stop-color="#7A583D"/>
</linearGradient>
<linearGradient id="paint83_linear_2726_398" x1="13.2386" y1="604.321" x2="1180.17" y2="199.882" gradientUnits="userSpaceOnUse">
<stop stop-color="#EBB075"/>
<stop offset="1" stop-color="#7A583D"/>
</linearGradient>
<linearGradient id="paint84_linear_2726_398" x1="5.38031" y1="613.559" x2="1172.31" y2="209.12" gradientUnits="userSpaceOnUse">
<stop stop-color="#EBB075"/>
<stop offset="1" stop-color="#7A583D"/>
</linearGradient>
<linearGradient id="paint85_linear_2726_398" x1="-2.62542" y1="622.594" x2="1164.3" y2="218.155" gradientUnits="userSpaceOnUse">
<stop stop-color="#EBB075"/>
<stop offset="1" stop-color="#7A583D"/>
</linearGradient>
<linearGradient id="paint86_linear_2726_398" x1="-10.7847" y1="631.401" x2="1156.14" y2="226.962" gradientUnits="userSpaceOnUse">
<stop stop-color="#EBB075"/>
<stop offset="1" stop-color="#7A583D"/>
</linearGradient>
<linearGradient id="paint87_linear_2726_398" x1="-19.1195" y1="639.955" x2="1147.81" y2="235.516" gradientUnits="userSpaceOnUse">
<stop stop-color="#EBB075"/>
<stop offset="1" stop-color="#7A583D"/>
</linearGradient>
<linearGradient id="paint88_linear_2726_398" x1="-27.634" y1="648.223" x2="1139.29" y2="243.784" gradientUnits="userSpaceOnUse">
<stop stop-color="#EBB075"/>
<stop offset="1" stop-color="#7A583D"/>
</linearGradient>
<linearGradient id="paint89_linear_2726_398" x1="-36.3462" y1="656.18" x2="1130.58" y2="251.74" gradientUnits="userSpaceOnUse">
<stop stop-color="#EBB075"/>
<stop offset="1" stop-color="#7A583D"/>
</linearGradient>
<linearGradient id="paint90_linear_2726_398" x1="-45.2585" y1="663.79" x2="1121.67" y2="259.351" gradientUnits="userSpaceOnUse">
<stop stop-color="#EBB075"/>
<stop offset="1" stop-color="#7A583D"/>
</linearGradient>
<linearGradient id="paint91_linear_2726_398" x1="-54.381" y1="671.021" x2="1112.55" y2="266.581" gradientUnits="userSpaceOnUse">
<stop stop-color="#EBB075"/>
<stop offset="1" stop-color="#7A583D"/>
</linearGradient>
<linearGradient id="paint92_linear_2726_398" x1="-63.7181" y1="677.845" x2="1103.21" y2="273.406" gradientUnits="userSpaceOnUse">
<stop stop-color="#EBB075"/>
<stop offset="1" stop-color="#7A583D"/>
</linearGradient>
<linearGradient id="paint93_linear_2726_398" x1="-73.2701" y1="684.23" x2="1093.66" y2="279.791" gradientUnits="userSpaceOnUse">
<stop stop-color="#EBB075"/>
<stop offset="1" stop-color="#7A583D"/>
</linearGradient>
<linearGradient id="paint94_linear_2726_398" x1="-83.0355" y1="690.144" x2="1083.89" y2="285.704" gradientUnits="userSpaceOnUse">
<stop stop-color="#EBB075"/>
<stop offset="1" stop-color="#7A583D"/>
</linearGradient>
<linearGradient id="paint95_linear_2726_398" x1="-93.0145" y1="695.561" x2="1073.91" y2="291.121" gradientUnits="userSpaceOnUse">
<stop stop-color="#EBB075"/>
<stop offset="1" stop-color="#7A583D"/>
</linearGradient>
<linearGradient id="paint96_linear_2726_398" x1="-103.192" y1="700.452" x2="1063.74" y2="296.013" gradientUnits="userSpaceOnUse">
<stop stop-color="#EBB075"/>
<stop offset="1" stop-color="#7A583D"/>
</linearGradient>
<linearGradient id="paint97_linear_2726_398" x1="-113.564" y1="704.8" x2="1053.36" y2="300.361" gradientUnits="userSpaceOnUse">
<stop stop-color="#EBB075"/>
<stop offset="1" stop-color="#7A583D"/>
</linearGradient>
<linearGradient id="paint98_linear_2726_398" x1="-124.113" y1="708.587" x2="1042.81" y2="304.148" gradientUnits="userSpaceOnUse">
<stop stop-color="#EBB075"/>
<stop offset="1" stop-color="#7A583D"/>
</linearGradient>
<linearGradient id="paint99_linear_2726_398" x1="-134.828" y1="711.798" x2="1032.1" y2="307.359" gradientUnits="userSpaceOnUse">
<stop stop-color="#EBB075"/>
<stop offset="1" stop-color="#7A583D"/>
</linearGradient>
<linearGradient id="paint100_linear_2726_398" x1="-145.689" y1="714.429" x2="1021.24" y2="309.99" gradientUnits="userSpaceOnUse">
<stop stop-color="#EBB075"/>
<stop offset="1" stop-color="#7A583D"/>
</linearGradient>
<linearGradient id="paint101_linear_2726_398" x1="-156.677" y1="716.475" x2="1010.25" y2="312.036" gradientUnits="userSpaceOnUse">
<stop stop-color="#EBB075"/>
<stop offset="1" stop-color="#7A583D"/>
</linearGradient>
<linearGradient id="paint102_linear_2726_398" x1="-167.769" y1="717.944" x2="999.158" y2="313.505" gradientUnits="userSpaceOnUse">
<stop stop-color="#EBB075"/>
<stop offset="1" stop-color="#7A583D"/>
</linearGradient>
<linearGradient id="paint103_linear_2726_398" x1="-178.957" y1="718.839" x2="987.971" y2="314.399" gradientUnits="userSpaceOnUse">
<stop stop-color="#EBB075"/>
<stop offset="1" stop-color="#7A583D"/>
</linearGradient>
<linearGradient id="paint104_linear_2726_398" x1="-190.208" y1="719.174" x2="976.719" y2="314.735" gradientUnits="userSpaceOnUse">
<stop stop-color="#EBB075"/>
<stop offset="1" stop-color="#7A583D"/>
</linearGradient>
<linearGradient id="paint105_linear_2726_398" x1="-201.511" y1="718.969" x2="965.416" y2="314.529" gradientUnits="userSpaceOnUse">
<stop stop-color="#EBB075"/>
<stop offset="1" stop-color="#7A583D"/>
</linearGradient>
<linearGradient id="paint106_linear_2726_398" x1="-212.85" y1="718.236" x2="954.077" y2="313.797" gradientUnits="userSpaceOnUse">
<stop stop-color="#EBB075"/>
<stop offset="1" stop-color="#7A583D"/>
</linearGradient>
<linearGradient id="paint107_linear_2726_398" x1="-224.213" y1="716.999" x2="942.715" y2="312.56" gradientUnits="userSpaceOnUse">
<stop stop-color="#EBB075"/>
<stop offset="1" stop-color="#7A583D"/>
</linearGradient>
<linearGradient id="paint108_linear_2726_398" x1="-235.603" y1="715.277" x2="931.325" y2="310.838" gradientUnits="userSpaceOnUse">
<stop stop-color="#EBB075"/>
<stop offset="1" stop-color="#7A583D"/>
</linearGradient>
<linearGradient id="paint109_linear_2726_398" x1="-247.08" y1="713.18" x2="919.848" y2="308.741" gradientUnits="userSpaceOnUse">
<stop stop-color="#EBB075"/>
<stop offset="1" stop-color="#7A583D"/>
</linearGradient>
<linearGradient id="paint110_linear_2726_398" x1="-258.44" y1="711.348" x2="908.488" y2="306.909" gradientUnits="userSpaceOnUse">
<stop stop-color="#EBB075"/>
<stop offset="1" stop-color="#7A583D"/>
</linearGradient>
<linearGradient id="paint111_linear_2726_398" x1="-269.79" y1="709.884" x2="897.138" y2="305.445" gradientUnits="userSpaceOnUse">
<stop stop-color="#EBB075"/>
<stop offset="1" stop-color="#7A583D"/>
</linearGradient>
<linearGradient id="paint112_linear_2726_398" x1="-281.136" y1="708.829" x2="885.791" y2="304.389" gradientUnits="userSpaceOnUse">
<stop stop-color="#EBB075"/>
<stop offset="1" stop-color="#7A583D"/>
</linearGradient>
<linearGradient id="paint113_linear_2726_398" x1="-292.458" y1="708.226" x2="874.47" y2="303.786" gradientUnits="userSpaceOnUse">
<stop stop-color="#EBB075"/>
<stop offset="1" stop-color="#7A583D"/>
</linearGradient>
<linearGradient id="paint114_linear_2726_398" x1="-303.74" y1="708.135" x2="863.188" y2="303.696" gradientUnits="userSpaceOnUse">
<stop stop-color="#EBB075"/>
<stop offset="1" stop-color="#7A583D"/>
</linearGradient>
<linearGradient id="paint115_linear_2726_398" x1="-314.964" y1="708.62" x2="851.963" y2="304.181" gradientUnits="userSpaceOnUse">
<stop stop-color="#EBB075"/>
<stop offset="1" stop-color="#7A583D"/>
</linearGradient>
<linearGradient id="paint116_linear_2726_398" x1="-326.096" y1="709.758" x2="840.832" y2="305.319" gradientUnits="userSpaceOnUse">
<stop stop-color="#EBB075"/>
<stop offset="1" stop-color="#7A583D"/>
</linearGradient>
<linearGradient id="paint117_linear_2726_398" x1="-337.1" y1="711.636" x2="829.828" y2="307.196" gradientUnits="userSpaceOnUse">
<stop stop-color="#EBB075"/>
<stop offset="1" stop-color="#7A583D"/>
</linearGradient>
<linearGradient id="paint118_linear_2726_398" x1="-347.92" y1="714.358" x2="819.007" y2="309.919" gradientUnits="userSpaceOnUse">
<stop stop-color="#EBB075"/>
<stop offset="1" stop-color="#7A583D"/>
</linearGradient>
<linearGradient id="paint119_linear_2726_398" x1="-358.481" y1="718.038" x2="808.447" y2="313.599" gradientUnits="userSpaceOnUse">
<stop stop-color="#EBB075"/>
<stop offset="1" stop-color="#7A583D"/>
</linearGradient>
<linearGradient id="paint120_linear_2726_398" x1="-368.687" y1="722.798" x2="798.241" y2="318.358" gradientUnits="userSpaceOnUse">
<stop stop-color="#EBB075"/>
<stop offset="1" stop-color="#7A583D"/>
</linearGradient>
<linearGradient id="paint121_linear_2726_398" x1="-378.415" y1="728.755" x2="788.513" y2="324.316" gradientUnits="userSpaceOnUse">
<stop stop-color="#EBB075"/>
<stop offset="1" stop-color="#7A583D"/>
</linearGradient>
<linearGradient id="paint122_linear_2726_398" x1="-387.507" y1="736.018" x2="779.42" y2="331.579" gradientUnits="userSpaceOnUse">
<stop stop-color="#EBB075"/>
<stop offset="1" stop-color="#7A583D"/>
</linearGradient>
<linearGradient id="paint123_linear_2726_398" x1="-395.781" y1="744.636" x2="771.147" y2="340.197" gradientUnits="userSpaceOnUse">
<stop stop-color="#EBB075"/>
<stop offset="1" stop-color="#7A583D"/>
</linearGradient>
<linearGradient id="paint124_linear_2726_398" x1="-403.066" y1="754.598" x2="763.862" y2="350.159" gradientUnits="userSpaceOnUse">
<stop stop-color="#EBB075"/>
<stop offset="1" stop-color="#7A583D"/>
</linearGradient>
<linearGradient id="paint125_linear_2726_398" x1="-409.212" y1="765.799" x2="757.715" y2="361.359" gradientUnits="userSpaceOnUse">
<stop stop-color="#EBB075"/>
<stop offset="1" stop-color="#7A583D"/>
</linearGradient>
<linearGradient id="paint126_linear_2726_398" x1="-414.127" y1="778.051" x2="752.8" y2="373.612" gradientUnits="userSpaceOnUse">
<stop stop-color="#EBB075"/>
<stop offset="1" stop-color="#7A583D"/>
</linearGradient>
<linearGradient id="paint127_linear_2726_398" x1="-417.8" y1="791.131" x2="749.127" y2="386.691" gradientUnits="userSpaceOnUse">
<stop stop-color="#EBB075"/>
<stop offset="1" stop-color="#7A583D"/>
</linearGradient>
<linearGradient id="paint128_linear_2726_398" x1="-420.291" y1="804.809" x2="746.636" y2="400.37" gradientUnits="userSpaceOnUse">
<stop stop-color="#EBB075"/>
<stop offset="1" stop-color="#7A583D"/>
</linearGradient>
<linearGradient id="paint129_linear_2726_398" x1="-421.688" y1="818.889" x2="745.239" y2="414.449" gradientUnits="userSpaceOnUse">
<stop stop-color="#EBB075"/>
<stop offset="1" stop-color="#7A583D"/>
</linearGradient>
<linearGradient id="paint130_linear_2726_398" x1="-422.117" y1="833.21" x2="744.811" y2="428.77" gradientUnits="userSpaceOnUse">
<stop stop-color="#EBB075"/>
<stop offset="1" stop-color="#7A583D"/>
</linearGradient>
<linearGradient id="paint131_linear_2726_398" x1="-421.685" y1="847.663" x2="745.242" y2="443.224" gradientUnits="userSpaceOnUse">
<stop stop-color="#EBB075"/>
<stop offset="1" stop-color="#7A583D"/>
</linearGradient>
<linearGradient id="paint132_linear_2726_398" x1="-420.506" y1="862.159" x2="746.422" y2="457.719" gradientUnits="userSpaceOnUse">
<stop stop-color="#EBB075"/>
<stop offset="1" stop-color="#7A583D"/>
</linearGradient>
<linearGradient id="paint133_linear_2726_398" x1="-418.666" y1="876.639" x2="748.261" y2="472.2" gradientUnits="userSpaceOnUse">
<stop stop-color="#EBB075"/>
<stop offset="1" stop-color="#7A583D"/>
</linearGradient>
<linearGradient id="paint134_linear_2726_398" x1="-416.258" y1="891.07" x2="750.67" y2="486.631" gradientUnits="userSpaceOnUse">
<stop stop-color="#EBB075"/>
<stop offset="1" stop-color="#7A583D"/>
</linearGradient>
<linearGradient id="paint135_linear_2726_398" x1="-413.336" y1="905.421" x2="753.591" y2="500.982" gradientUnits="userSpaceOnUse">
<stop stop-color="#EBB075"/>
<stop offset="1" stop-color="#7A583D"/>
</linearGradient>
<linearGradient id="paint136_linear_2726_398" x1="-409.966" y1="919.674" x2="756.961" y2="515.234" gradientUnits="userSpaceOnUse">
<stop stop-color="#EBB075"/>
<stop offset="1" stop-color="#7A583D"/>
</linearGradient>
<linearGradient id="paint137_linear_2726_398" x1="-406.194" y1="933.821" x2="760.734" y2="529.381" gradientUnits="userSpaceOnUse">
<stop stop-color="#EBB075"/>
<stop offset="1" stop-color="#7A583D"/>
</linearGradient>
<linearGradient id="paint138_linear_2726_398" x1="-402.053" y1="947.847" x2="764.875" y2="543.407" gradientUnits="userSpaceOnUse">
<stop stop-color="#EBB075"/>
<stop offset="1" stop-color="#7A583D"/>
</linearGradient>
<linearGradient id="paint139_linear_2726_398" x1="-397.58" y1="961.751" x2="769.347" y2="557.311" gradientUnits="userSpaceOnUse">
<stop stop-color="#EBB075"/>
<stop offset="1" stop-color="#7A583D"/>
</linearGradient>
<linearGradient id="paint140_linear_2726_398" x1="-392.798" y1="975.529" x2="774.13" y2="571.09" gradientUnits="userSpaceOnUse">
<stop stop-color="#EBB075"/>
<stop offset="1" stop-color="#7A583D"/>
</linearGradient>
<linearGradient id="paint141_linear_2726_398" x1="-387.733" y1="989.172" x2="779.194" y2="584.733" gradientUnits="userSpaceOnUse">
<stop stop-color="#EBB075"/>
<stop offset="1" stop-color="#7A583D"/>
</linearGradient>
<linearGradient id="paint142_linear_2726_398" x1="-382.394" y1="1002.68" x2="784.534" y2="598.24" gradientUnits="userSpaceOnUse">
<stop stop-color="#EBB075"/>
<stop offset="1" stop-color="#7A583D"/>
</linearGradient>
<linearGradient id="paint143_linear_2726_398" x1="-376.8" y1="1016.04" x2="790.128" y2="611.605" gradientUnits="userSpaceOnUse">
<stop stop-color="#EBB075"/>
<stop offset="1" stop-color="#7A583D"/>
</linearGradient>
<linearGradient id="paint144_linear_2726_398" x1="-370.951" y1="1029.26" x2="795.976" y2="624.819" gradientUnits="userSpaceOnUse">
<stop stop-color="#EBB075"/>
<stop offset="1" stop-color="#7A583D"/>
</linearGradient>
<linearGradient id="paint145_linear_2726_398" x1="-364.84" y1="1042.35" x2="802.088" y2="637.911" gradientUnits="userSpaceOnUse">
<stop stop-color="#EBB075"/>
<stop offset="1" stop-color="#7A583D"/>
</linearGradient>
</defs>
</svg>
