<svg width="125" height="18" viewBox="0 0 125 18" fill="none" xmlns="http://www.w3.org/2000/svg">
<path d="M8.68 14H0.9V0.6H8.4C10.96 0.6 12.5 1.78 12.5 3.9C12.5 5.48 11.62 6.66 9.58 6.9V7.04C11.86 7.3 12.98 8.54 12.98 10.3C12.98 12.6 11.44 14 8.68 14ZM3.04 2.54V6.22H8.1C9.6 6.22 10.36 5.64 10.36 4.38C10.36 3.12 9.66 2.54 8.16 2.54H3.04ZM3.04 8V12.06H8.44C10.04 12.06 10.82 11.46 10.82 10C10.82 8.6 10.02 8 8.44 8H3.04ZM19.3789 14.2C16.1189 14.2 13.9789 12.36 13.9789 9.04C13.9789 5.94 16.0989 3.86 19.3389 3.86C22.4189 3.86 24.5189 5.56 24.5189 8.58C24.5189 8.94 24.4989 9.22 24.4389 9.52H15.9989C16.0789 11.44 17.0189 12.46 19.3189 12.46C21.3989 12.46 22.2589 11.78 22.2589 10.6V10.44H24.4189V10.62C24.4189 12.74 22.3389 14.2 19.3789 14.2ZM19.2989 5.56C17.0989 5.56 16.1389 6.54 16.0189 8.32H22.4789V8.28C22.4789 6.44 21.4189 5.56 19.2989 5.56ZM29.0567 14.2C26.9967 14.2 25.6967 13.24 25.6967 11.6C25.6967 10.06 26.9367 9.26 28.8967 9.04L33.4167 8.56V7.98C33.4167 6.34 32.6967 5.76 30.7967 5.76C28.9567 5.76 28.0567 6.36 28.0567 7.82V7.9H25.9167V7.82C25.9167 5.56 27.7967 3.86 30.9567 3.86C34.1167 3.86 35.5367 5.58 35.5367 7.96V14H33.5567V11.52H33.4167C32.8967 13.2 31.3167 14.2 29.0567 14.2ZM27.8567 11.46C27.8567 12.26 28.3967 12.64 29.6367 12.64C31.8967 12.64 33.4167 11.8 33.4167 9.84L29.5167 10.28C28.3967 10.42 27.8567 10.68 27.8567 11.46ZM41.6048 14.2C38.8048 14.2 37.4448 12.34 37.4448 10.04V4.06H39.5848V9.46C39.5848 11.32 40.4448 12.26 42.5448 12.26C44.7448 12.26 45.7648 11.14 45.7648 8.98V4.06H47.9048V14H45.9248V10.92H45.8048C45.4848 12.6 44.1648 14.2 41.6048 14.2ZM56.3872 14H54.1072C51.9672 14 50.6472 13.06 50.6472 10.64V5.86H48.9672V4.06H50.6472V1.88H52.7872V4.06H56.3872V5.86H52.7872V10.52C52.7872 11.74 53.3472 12.06 54.5872 12.06H56.3872V14ZM59.3383 17.4H57.9183V15.44H59.8583C60.7383 15.44 61.0983 15.2 61.3983 14.52L61.6383 14L56.7383 4.06H59.1583L61.6983 9.34L62.6783 11.72H62.8383L63.7783 9.32L66.1183 4.06H68.4983L63.3183 15.08C62.4983 16.86 61.3783 17.4 59.3383 17.4ZM77.3127 14.2C74.1727 14.2 72.1927 12.84 72.1927 10.42C72.1927 8.62 73.2127 7.36 75.0727 6.96V6.86C73.4127 6.52 72.5527 5.38 72.5527 3.92C72.5527 1.78 74.1927 0.58 76.9327 0.58H80.2727V1.4H76.8927C74.4127 1.4 73.4327 2.22 73.4327 4C73.4327 5.76 74.7527 6.58 77.0527 6.58H82.0927V4.18H82.9727V6.58H85.3327V7.38H82.9727V9.58C82.9727 12.5 80.8927 14.2 77.3127 14.2ZM77.3327 13.38C80.6927 13.38 82.0927 12.2 82.0927 9.6V7.38H76.7327C74.4327 7.38 73.0727 8.34 73.0727 10.38C73.0727 12.44 74.3327 13.38 77.3327 13.38ZM95.5458 14.2C91.5458 14.2 89.5058 12.44 89.5058 9.62V9.5H91.6658V9.82C91.6658 11.42 92.6058 12.22 95.5458 12.22C98.1058 12.22 99.0058 11.66 99.0058 10.4C99.0058 9.24 98.3258 8.8 96.6258 8.48L93.3458 7.94C91.0858 7.54 89.4858 6.5 89.4858 4.3C89.4858 2.36 91.0858 0.4 95.2458 0.4C99.1658 0.4 100.946 2.36 100.946 4.98V5.1H98.8058V4.84C98.8058 3.2 97.8258 2.38 95.0458 2.38C92.6058 2.38 91.6458 2.98 91.6458 4.18C91.6458 5.34 92.3258 5.72 93.9058 6.06L97.1658 6.62C99.8458 7.1 101.166 8.32 101.166 10.28C101.166 12.32 99.5058 14.2 95.5458 14.2ZM104.859 17.4H102.699V4.06H104.679V6.82H104.859C105.259 4.98 106.659 3.86 108.999 3.86C112.079 3.86 113.819 5.96 113.819 9.04C113.819 12.12 112.119 14.2 109.019 14.2C106.779 14.2 105.339 13.02 104.939 11.2H104.859V17.4ZM104.859 9.2C104.859 11.24 106.159 12.24 108.279 12.24C110.419 12.24 111.659 11.42 111.659 9.04C111.659 6.64 110.399 5.84 108.319 5.84C106.099 5.84 104.859 6.88 104.859 9.02V9.2ZM118.236 14.2C116.176 14.2 114.876 13.24 114.876 11.6C114.876 10.06 116.116 9.26 118.076 9.04L122.596 8.56V7.98C122.596 6.34 121.876 5.76 119.976 5.76C118.136 5.76 117.236 6.36 117.236 7.82V7.9H115.096V7.82C115.096 5.56 116.976 3.86 120.136 3.86C123.296 3.86 124.716 5.58 124.716 7.96V14H122.736V11.52H122.596C122.076 13.2 120.496 14.2 118.236 14.2ZM117.036 11.46C117.036 12.26 117.576 12.64 118.816 12.64C121.076 12.64 122.596 11.8 122.596 9.84L118.696 10.28C117.576 10.42 117.036 10.68 117.036 11.46Z" fill="#F2F2F2"/>
</svg>
