<svg width="1440" height="579" viewBox="0 0 1440 579" fill="none" xmlns="http://www.w3.org/2000/svg">
<path d="M-28 106.536L1464 0V579H-28V106.536Z" fill="#6F4E37"/>
<path d="M1276.75 100.219C1271.51 119.487 1272.34 130.633 1285.84 151.749C1265.91 143.603 1254.58 145.59 1234.31 160.841C1242.07 138.414 1239.32 127.244 1225.22 109.311C1248.57 113.234 1259.85 111.195 1276.75 100.219Z" fill="#ECB176"/>
<path d="M1354.83 245.576C1352.47 254.271 1352.84 259.301 1358.93 268.83C1349.94 265.154 1344.83 266.051 1335.68 272.933C1339.18 262.812 1337.94 257.771 1331.58 249.679C1342.12 251.449 1347.2 250.529 1354.83 245.576Z" fill="#ECB176"/>
<path d="M1371.07 137.941C1369.35 144.244 1369.63 147.89 1374.04 154.798C1367.52 152.133 1363.82 152.783 1357.19 157.772C1359.72 150.436 1358.82 146.782 1354.21 140.915C1361.85 142.199 1365.54 141.532 1371.07 137.941Z" fill="#ECB176"/>
<path d="M197.238 24.8643C198.722 20.2315 205.278 20.2315 206.762 24.8643L215.852 53.24C216.893 56.4915 220.815 57.7658 223.569 55.7475L247.601 38.134C251.525 35.2583 256.828 39.1113 255.306 43.7317L245.981 72.0309C244.913 75.2737 247.336 78.6098 250.751 78.5956L280.546 78.4721C285.411 78.4519 287.437 84.6862 283.489 87.5293L259.311 104.943C256.541 106.938 256.541 111.062 259.311 113.057L283.489 130.471C287.437 133.314 285.411 139.548 280.546 139.528L250.751 139.404C247.336 139.39 244.913 142.726 245.981 145.969L255.306 174.268C256.828 178.889 251.525 182.742 247.601 179.866L223.569 162.253C220.815 160.234 216.893 161.509 215.852 164.76L206.762 193.136C205.278 197.769 198.722 197.769 197.238 193.136L188.148 164.76C187.107 161.509 183.185 160.234 180.431 162.253L156.399 179.866C152.475 182.742 147.172 178.889 148.694 174.268L158.019 145.969C159.087 142.726 156.664 139.39 153.249 139.404L123.454 139.528C118.589 139.548 116.563 133.314 120.511 130.471L144.689 113.057C147.459 111.062 147.459 106.938 144.689 104.943L120.511 87.5293C116.563 84.6862 118.589 78.4519 123.454 78.4721L153.249 78.5956C156.664 78.6098 159.087 75.2737 158.019 72.0309L148.694 43.7317C147.172 39.1113 152.475 35.2583 156.399 38.134L180.431 55.7475C183.185 57.7658 187.107 56.4915 188.148 53.24L197.238 24.8643Z" fill="#ECB176"/>
<path d="M185.083 100.2C181.023 100.2 178.743 98.6 178.743 95.48V95.36H181.743V95.72C181.743 96.96 182.363 97.46 185.083 97.46C187.483 97.46 188.043 97.1 188.043 96.2C188.043 95.38 187.583 95.08 186.203 94.84L182.443 94.3C180.043 93.92 178.623 92.72 178.623 90.54C178.623 88.52 180.263 86.4 184.763 86.4C188.883 86.4 190.803 88.3 190.803 91.12V91.24H187.783V90.96C187.783 89.68 187.123 89.14 184.463 89.14C182.303 89.14 181.643 89.56 181.643 90.42C181.643 91.2 182.083 91.48 183.203 91.68L186.963 92.28C189.963 92.76 191.043 94.22 191.043 96.06C191.043 98.24 189.343 100.2 185.083 100.2ZM199.325 100H196.845C194.505 100 193.085 98.9 193.085 96.38V92.46H191.505V89.98H193.085V88.04H196.085V89.98H199.325V92.46H196.085V96.04C196.085 97.04 196.465 97.3 197.525 97.3H199.325V100ZM203.528 100.2C201.368 100.2 200.068 99.2 200.068 97.52C200.068 96.04 201.168 95.12 203.308 94.9L207.608 94.46V94.08C207.608 92.78 207.028 92.42 205.428 92.42C203.908 92.42 203.288 92.82 203.288 93.96V94.04H200.268V93.98C200.268 91.5 202.348 89.78 205.648 89.78C208.988 89.78 210.568 91.5 210.568 94.12V100H207.768V97.7H207.608C207.148 99.26 205.748 100.2 203.528 100.2ZM203.088 97.32C203.088 97.86 203.508 98.08 204.388 98.08C206.428 98.08 207.528 97.6 207.608 96.18L204.128 96.58C203.408 96.64 203.088 96.84 203.088 97.32ZM214.009 103.4H212.369V100.68H214.829C215.569 100.68 215.889 100.48 216.089 100.04L211.189 89.98H214.589L216.709 94.56L217.549 96.92H217.749L218.549 94.54L220.449 89.98H223.789L218.829 100.72C217.869 102.82 216.529 103.4 214.009 103.4ZM168.214 130H165.214V116.6H168.214V121.92H175.214V116.6H178.214V130H175.214V124.62H168.214V130ZM185.143 130.2C181.803 130.2 179.523 128.56 179.523 125C179.523 121.8 181.783 119.78 185.083 119.78C188.363 119.78 190.543 121.5 190.543 124.64C190.543 125 190.503 125.26 190.463 125.6H182.303C182.383 127.14 183.103 127.8 185.043 127.8C186.823 127.8 187.443 127.34 187.443 126.48V126.28H190.443V126.5C190.443 128.68 188.323 130.2 185.143 130.2ZM185.023 122.12C183.243 122.12 182.483 122.72 182.343 124.02H187.663C187.583 122.7 186.783 122.12 185.023 122.12ZM194.896 130.2C192.736 130.2 191.436 129.2 191.436 127.52C191.436 126.04 192.536 125.12 194.676 124.9L198.976 124.46V124.08C198.976 122.78 198.396 122.42 196.796 122.42C195.276 122.42 194.656 122.82 194.656 123.96V124.04H191.636V123.98C191.636 121.5 193.716 119.78 197.016 119.78C200.356 119.78 201.936 121.5 201.936 124.12V130H199.136V127.7H198.976C198.516 129.26 197.116 130.2 194.896 130.2ZM194.456 127.32C194.456 127.86 194.876 128.08 195.756 128.08C197.796 128.08 198.896 127.6 198.976 126.18L195.496 126.58C194.776 126.64 194.456 126.84 194.456 127.32ZM206.456 130H203.456V116.6H206.456V130ZM215.087 130H212.607C210.267 130 208.847 128.9 208.847 126.38V122.46H207.267V119.98H208.847V118.04H211.847V119.98H215.087V122.46H211.847V126.04C211.847 127.04 212.227 127.3 213.287 127.3H215.087V130ZM219.21 130H216.21V116.6H219.21V123.04H219.37C219.69 121.34 220.87 119.78 223.43 119.78C226.13 119.78 227.45 121.54 227.45 123.86V130H224.45V124.76C224.45 123.08 223.73 122.48 221.85 122.48C219.83 122.48 219.21 123.3 219.21 124.98V130ZM230.884 133.4H229.244V130.68H231.704C232.444 130.68 232.764 130.48 232.964 130.04L228.064 119.98H231.464L233.584 124.56L234.424 126.92H234.624L235.424 124.54L237.324 119.98H240.664L235.704 130.72C234.744 132.82 233.404 133.4 230.884 133.4Z" fill="#392F2B"/>
</svg>
