<svg width="56" height="58" viewBox="0 0 56 58" fill="none" xmlns="http://www.w3.org/2000/svg">
<path d="M28 0L29.1572 19.413C29.2854 21.564 29.3496 22.6395 29.9982 22.8502C30.6468 23.061 31.3308 22.2286 32.6989 20.5637L45.0458 5.53851L34.5713 21.9241C33.4107 23.7397 32.8304 24.6475 33.2313 25.1992C33.6322 25.751 34.6749 25.4796 36.7602 24.9369L55.5806 20.0385L37.4754 27.138C35.4693 27.9247 34.4663 28.318 34.4663 29C34.4663 29.682 35.4693 30.0753 37.4754 30.862L55.5806 37.9615L36.7602 33.0631C34.6749 32.5204 33.6322 32.249 33.2313 32.8008C32.8304 33.3525 33.4107 34.2603 34.5713 36.0759L45.0458 52.4615L32.6989 37.4363C31.3308 35.7714 30.6468 34.939 29.9982 35.1498C29.3496 35.3605 29.2854 36.436 29.1572 38.587L28 58L26.8428 38.587C26.7146 36.436 26.6504 35.3605 26.0018 35.1498C25.3532 34.939 24.6692 35.7714 23.3011 37.4363L10.9542 52.4615L21.4287 36.0759C22.5893 34.2603 23.1696 33.3525 22.7687 32.8008C22.3678 32.249 21.3251 32.5204 19.2398 33.0631L0.419361 37.9615L18.5246 30.862C20.5307 30.0753 21.5337 29.682 21.5337 29C21.5337 28.318 20.5307 27.9247 18.5246 27.138L0.419361 20.0385L19.2398 24.9369C21.3251 25.4796 22.3678 25.751 22.7687 25.1992C23.1696 24.6475 22.5893 23.7397 21.4287 21.9241L10.9542 5.53851L23.3011 20.5637C24.6692 22.2286 25.3532 23.061 26.0018 22.8502C26.6504 22.6395 26.7146 21.564 26.8428 19.413L28 0Z" fill="white"/>
</svg>
