<svg width="135" height="46" viewBox="0 0 135 46" fill="none" xmlns="http://www.w3.org/2000/svg">
<path d="M117.229 34.1468C115.757 33.7312 114.285 33.3395 112.821 32.8999C110.135 32.1005 107.56 33.1716 106.803 35.4258C106.079 37.6 107.285 39.2227 110.393 39.9181C114.371 40.8053 118.418 41.4528 122.387 42.372C124.513 42.8676 126.485 43.9627 128.62 44.3224C130.239 44.6022 132.374 44.6502 133.58 43.8748C134.604 43.2193 135.069 41.197 134.992 39.8142C134.802 36.2171 134.2 32.6281 133.709 29.047C133.58 28.0878 133.537 26.9527 132.96 26.2493C132.116 25.2102 130.824 24.4908 129.731 23.6275C128.724 24.9464 126.984 26.2014 126.847 27.6002C126.571 30.3739 127.182 33.2196 127.432 36.2091C125.4 36.2731 124.143 36.1132 124.522 33.8751C124.849 31.9087 123.937 30.3499 122.12 29.1429C112.718 22.8841 103.755 15.9458 93.8447 10.4943C86.9223 6.68943 78.7945 4.63511 71.0283 2.30902C66.9988 1.10202 62.5819 0.486523 58.3458 0.510502C50.4591 0.558464 43.7864 2.97248 41.4875 11.2057C34.987 9.96672 28.7276 8.76772 22.4595 7.59269C16.6564 6.50558 10.8447 5.65028 5.04157 7.64064C4.85215 7.70459 4.59387 7.64063 4.42167 7.72856C2.36389 8.83965 -0.675432 9.76689 0.133904 12.4287C1.01212 15.3063 3.97394 14.467 6.31585 13.8275C12.8939 12.021 19.2566 13.7396 25.6538 14.8027C29.8813 15.5062 34.0571 16.5293 38.3018 17.1129C40.5318 17.4166 41.3498 18.3758 41.5564 20.2862C42.6413 30.3659 49.0385 37.2563 57.6054 42.6598C61.4713 45.0978 66.112 45.4575 70.6495 45.2497C75.2214 45.0498 77.6494 41.0931 76.995 36.9525C75.1869 25.4819 65.7246 20.7419 56.2278 15.9858C53.5845 14.6589 50.726 13.6997 47.9192 12.5566C48.7113 9.16739 50.6227 7.37686 54.1183 6.91324C61.6348 5.91406 68.8069 7.22498 75.8154 9.55906C84.5632 12.4687 93.0956 15.8419 100.543 21.1255C106.286 25.1942 111.857 29.4707 117.496 33.6512C117.402 33.8111 117.307 33.971 117.212 34.1308L117.229 34.1468ZM47.6695 20.0464C56.0125 21.725 71.3899 30.5178 70.0554 39.7662C61.5229 41.8605 48.2463 29.8064 47.6695 20.0464Z" fill="#CB9769"/>
</svg>
